/* XPM */
static char *result[] = {
/* columns rows colors chars-per-pixel */
"32 64 191 2 ",
"   c #BB3200",
".  c #BB3301",
"X  c #BC3100",
"o  c #BC3200",
"O  c #BC3300",
"+  c #BD3300",
"@  c #BC3201",
"#  c #BC3301",
"$  c #BD3301",
"%  c #BC3302",
"&  c #BD3302",
"*  c #BD3402",
"=  c #BD3403",
"-  c #BE3402",
";  c #BE3502",
":  c #BE3503",
">  c #BF3503",
",  c #BF3603",
"<  c #BF3605",
"1  c #C03504",
"2  c #C03604",
"3  c #C03705",
"4  c #C23706",
"5  c #C13805",
"6  c #C23805",
"7  c #C03806",
"8  c #C13806",
"9  c #C13907",
"0  c #C23806",
"q  c #C33806",
"w  c #C23906",
"e  c #C23807",
"r  c #C23907",
"t  c #C33907",
"y  c #C23A07",
"u  c #C33A07",
"i  c #C43907",
"p  c #C23A08",
"a  c #C43A08",
"s  c #C43B08",
"d  c #C53B08",
"f  c #C53B09",
"g  c #C63B09",
"h  c #C53B0A",
"j  c #C53C09",
"k  c #C63C09",
"l  c #C53C0A",
"z  c #C43D0B",
"x  c #C53D0B",
"c  c #C63C0A",
"v  c #C73C0A",
"b  c #C63D0A",
"n  c #C73D0A",
"m  c #C63C0B",
"M  c #C43D0C",
"N  c #C93E0B",
"B  c #C83E0C",
"V  c #C93E0C",
"C  c #C93F0C",
"Z  c #C83F0D",
"A  c #C83F0E",
"S  c #C9400D",
"D  c #CA400D",
"F  c #CB420D",
"G  c #C9400E",
"H  c #C9410E",
"J  c #CA400E",
"K  c #CA410E",
"L  c #CB410E",
"P  c #CB420F",
"I  c #CC410E",
"U  c #CC420E",
"Y  c #CC420F",
"T  c #CD420F",
"R  c #C74110",
"E  c #C94210",
"W  c #C94211",
"Q  c #CB4210",
"!  c #CA4311",
"~  c #C94312",
"^  c #CC4210",
"/  c #CD4310",
"(  c #CC4311",
")  c #CD4311",
"_  c #C94413",
"`  c #CA4413",
"'  c #CC4411",
"]  c #CD4411",
"[  c #CD4513",
"{  c #CE4412",
"}  c #CE4512",
"|  c #CE4513",
" . c #CF4513",
".. c #CE4613",
"X. c #CF4613",
"o. c #CB4514",
"O. c #CC4615",
"+. c #CC4715",
"@. c #CE4614",
"#. c #CF4715",
"$. c #CF4816",
"%. c #CF4817",
"&. c #CF4918",
"*. c #CE4919",
"=. c #CF4A1A",
"-. c #D04715",
";. c #D04816",
":. c #D04916",
">. c #D14916",
",. c #D14817",
"<. c #D04917",
"1. c #D14A17",
"2. c #D04A18",
"3. c #D14A19",
"4. c #D04B19",
"5. c #D14B19",
"6. c #D24B19",
"7. c #D04B1A",
"8. c #D14B1A",
"9. c #D24C1A",
"0. c #D34C1A",
"q. c #D34C1B",
"w. c #D24D1B",
"e. c #D34D1B",
"r. c #D14C1C",
"t. c #D14D1C",
"y. c #D24D1C",
"u. c #D34D1C",
"i. c #D24D1D",
"p. c #D14E1D",
"a. c #D24E1E",
"s. c #D24F1E",
"d. c #D44D1C",
"f. c #D44F1D",
"g. c #D44F1E",
"h. c #D54F1E",
"j. c #D4501F",
"k. c #D5501F",
"l. c #D35020",
"z. c #D55020",
"x. c #D55120",
"c. c #D55121",
"v. c #D65120",
"b. c #D75220",
"n. c #D65222",
"m. c #D75222",
"M. c #D65322",
"N. c #D75322",
"B. c #D75323",
"V. c #D65424",
"C. c #D75627",
"Z. c #D85322",
"A. c #D85422",
"S. c #D85424",
"D. c #D85524",
"F. c #D95624",
"G. c #D85626",
"H. c #D95727",
"J. c #DA5727",
"K. c #DA5827",
"L. c #DB5827",
"P. c #DA5728",
"I. c #DA5828",
"U. c #DB5928",
"Y. c #DA5929",
"T. c #DA592A",
"R. c #DB592A",
"E. c #DB5A2A",
"W. c #DB5A2B",
"Q. c #DC5A2A",
"!. c #DC5B2A",
"~. c #DC5A2B",
"^. c #DC5B2B",
"/. c #DC5C2B",
"(. c #DC5B2C",
"). c #DB5C2C",
"_. c #DC5C2C",
"`. c #DD5C2C",
"'. c #DD5D2C",
"]. c #DD5D2D",
"[. c #DE5D2D",
"{. c #DE5E2D",
"}. c #DD5E2E",
"|. c #DD5F2F",
" X c #DE5E2E",
".X c #DE5E2F",
"XX c #DF5E2F",
"oX c #DF5F2F",
"OX c #DE5E30",
"+X c #DE5F30",
"@X c None",
/* pixels */
"@X@X@X@X@X@X@X@X@X@X@X@X@X@X@X@X@X@X@X@X@X@X@X@X@X@X@X@X@X@X@X@X",
"@X@X@X@X@X@X@X@X@X@X@X@X@X@X@X@X@X@X@X@X@X@X@X@X@X@X@X@X@X@X@X@X",
"@X@X@X@X@X@X@X@X@X@X@X@X@X@X@X@X@X@X@X@X@X@X@X@X@X@X@X@X@X@X@X@X",
"@X@X@X@X@X@X@X@X@X@X@X@X@X@X@X@X@X@X@X@X@X@X@X@X@X@X@X@X@X@X@X@X",
"@X@X@X@X@X@X@X@X@X@X@X@X@X@X@X@X@X@X@X@X@X@X@X@X@X@X@X@X@X@X@X@X",
"@X@X@X@X@X@X@X@X@X@X@X@X@X@X@X@X@X@X@X@X@X@X@X@X@X@X@X@X@X@X@X@X",
"@X@X@X@X@X@X@X@X@X@X@X@X@X@X@X@X@X@X@X@X@X@X@X@X@X@X@X@X@X@X@X@X",
"@X@X@X@X@X@X@X@X@X@X@X@X@X@X@X@X@X@X@X@X@X@X@X@X@X@X@X@X@X@X@X@X",
"@X@X@X@X@X@X@X@X@X@X@X@X@X@X@X@X@X@X@X@X@X@X@X@X@X@X@X@X@X@X@X@X",
"@X@X@X@X@X@X@X@X@X@X@X@X@X@X@X@X@X@X@X@X@X@X@X@X@X@X@X@X@X@X@X@X",
"@X@X@X@X@X@X@X@X@X@X@X@X@X@X@X@X@X@X@X@X@X@X@X@X@X@X@X@X@X@X@X@X",
"@X@X@X@X@X@X@X@X@X@X@X@X@X@X@X@X@X@X@X@X@X@X@X@X@X@X@X@X@X@X@X@X",
"@X@X@X@X@X@X@X@X@X@X@X@X@X@X@X@X@X@X@X@X@X@X@X@X@X@X@X@X@X@X@X@X",
"@X@X@X@X@X@X@X@X@X@X@X@X@X@X@X@X@X@X@X@X@X@X@X@X@X@X@X@X@X@X@X@X",
"@X@X@X@X@X@X@X@X@X@X@X@X@X@X@X@X@X@X@X@X@X@X@X@X@X@X@X@X@X@X@X@X",
"@X@X@X@X@X@X@X@X@X@X@X@X@X@X@X@X@X@X@X@X@X@X@X@X@X@X@X@X@X@X@X@X",
"@X@X@X@X@X@X@X@X@X    @X@X@X@X@X@X@X@X@X@X@X@X@X@X@X@X@X@X  o o ",
"@X@X@X@X@X@X@X@X  X X   @X@X@X@X@X@X@X@X@X@X@X@X@X@X@X@X  X o o ",
"@X@X@X@X@X@X@X@X& & & & @X@X@X@X@X@X@X@X@X@X@X@X@X@X@X@X& & * * ",
"@X@X@X@X@X@X@X: 2 6 6 2 : @X@X@X@X@X@X@X@X@X@X@X@X@X@X: 2 6 4 4 ",
"@X@X@X@X@X  & 2 r d d r 2 & o o o o   @X@X@X@X@X@X  & 2 r d k k ",
"@X@X@X@X  X & 6 d N N d 6 & o o o o X   @X@X@X@X  X & 6 d N D D ",
"@X@X@X@Xo   & 0 k D D v i : * * * * & & @X@X@X@X& & : i v D Y Y ",
"@X@X@X    o * 0 k D K N g i 4 4 4 4 6 2 : @X@X: 2 6 i g N K Y Y ",
"o o o     O - 0 c D L S N v k k k k d r 2 & & 2 r d v N S L Y Y ",
"o o   o O # : 0 c D Y L K D D D D D N d 6 & & 6 d N D K L Y Y Y ",
"o o   o # # ; 8 f B D L L Y Y Y Y Y D k 4 * * 4 k D Y Y Y Y Y Y ",
"o o o o @ @ * 2 w f n B D L Y Y Y Y D k 4 * * 4 k D Y Y I Y U U ",
"@X@X@XO . # * : 2 8 u c B L Y Y Y Y D k 4 * * 4 k D Y I Y @X@X@X",
"@X@X@X@X# # # * * ; 2 u n D Y Y Y Y D k 4 * * 4 k D Y Y @X@X@X@X",
"@X@X@X@X+ # # # # # ; 8 f B L Y ) } ( Z a 1 : q f V S D @X@X@X@X",
"@X@X@X@X@X+ # # $ # * 2 w f B Q @.3.2.[ A a q i a f k h @X@X@X@X",
"@X@X@X@X@X@X@X& # # * : 2 8 l ! &.k.z.4.[ Z f a i q 4 6 @X@X@X@X",
"@X@X@X@X@X@X@X@X# # # * * ; p ~ r.G.H.z.2.( V f q : * * @X@X@X@X",
"@X@X@X@X@X@X@X@X% # * : < 7 z o.p.G.J.v.6.} D k 4 * o o @X@X@X@X",
"@X@X@X@X@X@X@X@X% # : 9 M R o.*.i.c.v.e.:.] D k 4 * o o @X@X@X@X",
"@X@X@X@X@X@X@X@X% # < M _ =.p.i.y.e.6.:.X./ D k 4 * o o @X@X@X@X",
"@X@X@X@X@X@X@X@X% # 7 R =.V.G.c.e.;.} ] / ^ D k 4 * o o @X@X@X@X",
"@X@X@X@X@X@X@X@X, : p ` s.Y.~.B.q.| Y L L D B d 6 * X   @X@X@X@X",
"@X@X@X@X@X@X@Xn s y x +.l.T.~.B.q.| L D B n j t 3 &   @X@X@X@X@X",
"@X@X@X@X@XT F C B b H &.c.E.~.B.q.| L B c u 5 3 , @X@X@X@X@X@X@X",
"@X@X@X@XT I P L L D ' 8.M.W.~.B.q.| D n u 2 ; = @X@X@X@X@X@X@X@X",
"@X@X@X@XU Y ^ / ] } ;.u.N.I.J.v.6.} D n u 2 : , @X@X@X@X@X@X@X@X",
"@X@X@X@XU Y / X.:.6.u.g.v.N.v.e.:.] L B c u y s n @X@X@X@X@X@X@X",
"@X@X@X@XU Y ] :.e.v.N.v.g.u.6.:.X./ L D B n b B C F D n 0 > % % ",
"@X@X@X@XU Y } 6.v.J.I.N.u.;.} ] / ^ Y L L D D L L P J b 0 ; # # ",
"@X@X@X@X} ..;.u.N.I.I.N.u.;.} ] / ^ ^ / ] } } ] / ^ D n u 2 : : ",
"@X@X@XE $.8.u.g.v.N.N.v.g.u.6.:.X./ / ..>.6.6.>.../ L B c u w w ",
"o o 7 W 7.c.N.v.g.u.u.g.v.N.v.e.:.] ] >.e.b.b.e.>.] L D B n c c ",
"o o 7 ~ t.C.I.N.u.;.;.u.N.I.J.v.6.} } 6.b.K.K.b.6.} Y L L D D D ",
"* * e ` a.Y.^.D.f.:.;.u.N.I.J.v.6.} } 6.b.K.K.b.6.} ^ / ] } | | ",
"4 4 m O.j.T._.H.N.f.d.h.x.N.v.e.:.] ] >.e.b.b.e.>.] / X.:.6.q.q.",
"k k G %.c.E.].Q.J.F.A.v.h.u.6.:.X./ / ..>.6.6.>.../ ] :.e.v.B.B.",
"D D ' 8.M.W.}.].'./.U.A.d.;.} ] / ^ ^ / ] } } ] / ^ } 6.v.J.~.~.",
"Y Y X.0.n.P.^.`.{.oX`.F.f.:.} { / ^ ^ / { } } ] / ^ } 9.m.W..X.X",
"U U ..5.f.n.D.J.!. X[.L.N.f.9.<.-.} } #.1.0.6.>.../ { <.k.R.oXoX",
"@X@X@X,.5.0.f.N.L.[. X!.J.D.m.k.u.@X@Xu.z.Z.b.e.>.] / -.u.@X@X@X",
"@X@X@X@X..X.:.f.F.`.oX{.`.^.W.R.@X@X@X@XE.^.K.b.6.} ^ } @X@X@X@X",
"@X@X@X@XT I ..u.S.(.oXoXXX.X.XOX@X@X@X@XOX+X(.S.u...I T @X@X@X@X",
"@X@X@X@X@XT  .w.S.).oXoX|.oXOX@X@X@X@X@X@XOX).S.w. .T @X@X@X@X@X",
"@X@X@X@X@X@X@X@X@X@X@X@X@X@X@X@X@X@X@X@X@X@X@X@X@X@X@X@X@X@X@X@X",
"@X@X@X@X@X@X@X@X@X@X@X@X@X@X@X@X@X@X@X@X@X@X@X@X@X@X@X@X@X@X@X@X",
"@X@X@X@X@X@X@X@X@X@X@X@X@X@X@X@X@X@X@X@X@X@X@X@X@X@X@X@X@X@X@X@X",
"@X@X@X@X@X@X@X@X@X@X@X@X@X@X@X@X@X@X@X@X@X@X@X@X@X@X@X@X@X@X@X@X"
};
