/* XPM */
static char *result[] = {
/* columns rows colors chars-per-pixel */
"32 64 151 2 ",
"   c #BA3100",
".  c #BB3100",
"X  c #BB3200",
"o  c #BC3100",
"O  c #BC3200",
"+  c #BD3300",
"@  c #BC3301",
"#  c #BD3301",
"$  c #BC3302",
"%  c #BD3302",
"&  c #BD3402",
"*  c #BD3403",
"=  c #BE3502",
"-  c #BF3403",
";  c #BE3503",
":  c #BF3503",
">  c #BF3603",
",  c #BF3604",
"<  c #BF3705",
"1  c #C03604",
"2  c #C03704",
"3  c #C03605",
"4  c #C03705",
"5  c #C23705",
"6  c #C23706",
"7  c #C13805",
"8  c #C23805",
"9  c #C03806",
"0  c #C03906",
"q  c #C03807",
"w  c #C23806",
"e  c #C23906",
"r  c #C33906",
"t  c #C23907",
"y  c #C33907",
"u  c #C23A07",
"i  c #C33A07",
"p  c #C43A06",
"a  c #C43A07",
"s  c #C13908",
"d  c #C33B08",
"f  c #C43A08",
"g  c #C53A08",
"h  c #C53B08",
"j  c #C43B09",
"k  c #C53B09",
"l  c #C53B0A",
"z  c #C53C09",
"x  c #C63C09",
"c  c #C43D0B",
"v  c #C53D0B",
"b  c #C63C0A",
"n  c #C63D0A",
"m  c #C73D0A",
"M  c #C63D0B",
"N  c #C73D0B",
"B  c #C73E0B",
"V  c #C43D0C",
"C  c #C73F0D",
"Z  c #C63F0E",
"A  c #C83D0B",
"S  c #C83E0B",
"D  c #C93E0B",
"F  c #C83E0C",
"G  c #C83F0C",
"H  c #C93F0C",
"J  c #C9400C",
"K  c #C8400D",
"L  c #C9400D",
"P  c #CA400D",
"I  c #CB400D",
"U  c #CB420D",
"Y  c #C8410F",
"T  c #CA400E",
"R  c #CA410E",
"E  c #CB410E",
"W  c #CB410F",
"Q  c #CC410E",
"!  c #CC420E",
"~  c #CC420F",
"^  c #CD420F",
"/  c #CC430F",
"(  c #C74010",
")  c #C84211",
"_  c #CD4210",
"`  c #CD4310",
"'  c #CE4310",
"]  c #CF4310",
"[  c #CE4311",
"{  c #CB4412",
"}  c #CE4411",
"|  c #CF4411",
" . c #CE4511",
".. c #CD4512",
"X. c #CE4512",
"o. c #CE4613",
"O. c #CF4613",
"+. c #CB4514",
"@. c #CB4616",
"#. c #CC4615",
"$. c #CF4614",
"%. c #CF4714",
"&. c #CC4716",
"*. c #CD4817",
"=. c #CE4A19",
"-. c #CF4B1B",
";. c #D04714",
":. c #D04715",
">. c #D04815",
",. c #D04816",
"<. c #D14917",
"1. c #D14A19",
"2. c #D24B18",
"3. c #D04C1B",
"4. c #D24C1A",
"5. c #D34D1B",
"6. c #D14D1D",
"7. c #D34D1C",
"8. c #D24E1D",
"9. c #D34E1D",
"0. c #D24E1E",
"q. c #D44D1C",
"w. c #D44E1C",
"e. c #D44E1D",
"r. c #D44F1D",
"t. c #D4501F",
"y. c #D5511F",
"u. c #D35020",
"i. c #D65222",
"p. c #D75222",
"a. c #D75423",
"s. c #D65424",
"d. c #D65425",
"f. c #D85423",
"g. c #D85523",
"h. c #D95523",
"j. c #D85424",
"k. c #D85626",
"l. c #D95627",
"z. c #D95829",
"x. c #DA592A",
"c. c #DB592A",
"v. c #DB5A2B",
"b. c #DB5B2B",
"n. c #DC5A2B",
"m. c #DC5B2B",
"M. c #DC5C2D",
"N. c #DD5D2E",
"B. c #DE5E2F",
"V. c #DE5E30",
"C. c None",
/* pixels */
"C.C.C.C.C.C.C.C.C.C.C.C.C.C.C.C.C.C.C.C.C.C.C.C.C.C.C.C.C.C.C.C.",
"C.C.C.C.C.C.C.C.C.C.C.C.C.C.C.C.C.C.C.C.C.C.C.C.C.C.C.C.C.C.C.C.",
"C.C.C.C.C.C.C.C.C.C.C.C.C.C.C.C.C.C.C.C.C.C.C.C.C.C.C.C.C.C.C.C.",
"C.C.C.C.C.C.C.C.C.C.C.C.C.C.C.C.C.C.C.C.C.C.C.C.C.C.C.C.C.C.C.C.",
"C.C.C.C.C.C.C.C.C.C.C.C.C.C.C.C.C.C.C.C.C.C.C.C.C.C.C.C.C.C.C.C.",
"C.C.C.C.C.C.C.C.C.C.C.C.C.C.C.C.C.C.C.C.C.C.C.C.C.C.C.C.C.C.C.C.",
"C.C.C.C.C.C.C.C.C.C.C.C.C.C.C.C.C.C.C.C.C.C.C.C.C.C.C.C.C.C.C.C.",
"C.C.C.C.C.C.C.C.C.C.C.C.C.C.C.C.C.C.C.C.C.C.C.C.C.C.C.C.C.C.C.C.",
"C.C.C.C.C.C.C.C.C.C.C.C.C.C.C.C.C.C.C.C.C.C.C.C.C.C.C.C.C.C.C.C.",
"C.C.C.C.C.C.C.C.C.C.C.C.C.C.C.C.C.C.C.C.C.C.C.C.C.C.C.C.C.C.C.C.",
"C.C.C.C.C.C.C.C.C.C.C.C.C.C.C.C.C.C.C.C.C.C.C.C.C.C.C.C.C.C.C.C.",
"C.C.C.C.C.C.C.C.C.C.C.C.C.C.C.C.C.C.C.C.C.C.C.C.C.C.C.C.C.C.C.C.",
"C.C.C.C.C.C.C.C.C.C.C.C.C.C.C.C.C.C.C.C.C.C.C.C.C.C.C.C.C.C.C.C.",
"C.C.C.C.C.C.C.C.C.C.C.C.C.C.C.C.C.C.C.C.C.C.C.C.C.C.C.C.C.C.C.C.",
"C.C.C.C.C.C.C.C.C.C.C.C.C.C.C.C.C.C.C.C.C.C.C.C.C.C.C.C.C.C.C.C.",
"C.C.C.C.C.C.C.C.C.C.C.C.C.C.C.C.C.C.C.C.C.C.C.C.C.C.C.C.C.C.C.C.",
"C.C.C.C.C.C.C.C.C.C.C.C.C.C.C.C.C.X O O O O X C.C.C.C.C.C.C.C.C.",
"C.C.C.C.C.C.C.C.C.C.C.C.C.C.C.C.X o O O O O o X C.C.C.C.C.C.C.C.",
"C.C.C.C.C.C.C.C.C.C.C.C.C.C.C.C.X O . X o O   . C.C.C.C.C.C.C.C.",
"C.C.C.C.C.C.C.C.C.C.C.C.C.C.C.X o o X . o X .   C.C.C.C.C.C.C.C.",
"C.C.C.C.C.C.C.C.C.C.C.C.C.X X o . X o o X C.C.C.  . X C.C.C.C.C.",
"C.C.C.C.C.C.C.C.C.C.C.C.X o O o X . O X C.C.C.C..   o X C.C.C.C.",
"C.C.C.C.C.C.C.C.C.C.C.C.% % & & & & % % C.C.C.C.% % & & C.C.C.C.",
"C.C.C.C.C.C.C.C.C.C.C.; 1 8 6 6 6 6 8 1 ; C.C.; 1 8 6 8 C.C.C.C.",
"C.C.C.C.C.C.C.C.C.X % 1 t h x x x x h t 1 % % 1 t h x l C.C.C.C.",
"C.C.C.C.C.C.C.C.X o % 8 h D P P P P D h 8 % % 8 h D L P C.C.C.C.",
"C.C.C.C.C.C.C.C.% % ; r b P ~ ~ ~ ~ P x 6 & & 6 x P ~ ! C.C.C.C.",
"C.C.C.C.C.C.C.; 1 8 r g S I ~ Q ~ ~ P x 6 & & 6 x P ~ ! C.C.C.C.",
"C.C.C.C.C.X % 1 t h b S H C.C.~ Q ~ P x 6 & & 6 x P ~ ! C.C.C.C.",
"C.C.C.C.X o % 8 h D P I C.C.C.C.~ ~ P x 6 & & 6 x P ~ ! C.C.C.C.",
"C.C.C.C.X o & 8 h F P I C.C.C.C.~ / J k 5 % % 5 k J Q ^ C.C.C.C.",
"C.C.C.C.C.X % 4 y z m m H C.C.C.~ ~ H f 1 # # 1 f H ^ C.C.C.C.C.",
"C.C.C.C.C.C.C.> 4 7 i h m I ~ ~ C.C.C.8 ; @ @ ; 8 C.C.C.C.C.C.C.",
"C.C.C.C.C.C.C.C.* = 1 i m P / ~ C.C.C.C.% O O % C.C.C.C.C.C.C.C.",
"C.C.C.C.C.C.C.C.+ @ = 8 z G P I C.C.C.C.: & & & C.C.C.C.C.C.C.C.",
"C.C.C.C.C.C.C.C.C.+ - 8 a z m m H C.C.l f y 6 8 C.C.C.C.C.C.C.C.",
"C.C.C.C.C.C.C.C.C.C.C.3 8 8 i h m I U G S x x l C.C.C.C.C.C.C.C.",
"C.C.C.C.C.C.C.C.C.C.C.C.- = 1 i m P W E E P L P C.C.C.C.C.C.C.C.",
"C.C.C.C.C.C.C.C.C.C.C.C.$ @ ; e b P ~ E E P T P C.C.C.C.C.C.C.C.",
"C.C.C.C.C.C.C.C.C.C.C.C.$ @ ; e b P E P F m n m C.C.C.C.C.C.C.C.",
"C.C.C.C.C.C.C.C.C.C.C.C.$ @ ; e b P E F b i w w C.C.C.C.C.C.C.C.",
"C.C.C.C.C.C.C.C.C.C.C.C.$ @ ; e b P P m i 1 = : C.C.C.C.C.C.C.C.",
"C.C.C.C.C.C.C.C.C.C.C.C.+ @ = 8 z G H M j s q 0 C.C.C.C.C.C.C.C.",
"C.C.C.C.C.C.C.C.C.C.C.C.C.+ - 8 a z M C Y ) ) ( V C.C.C.C.C.C.C.",
"C.C.C.C.C.C.C.C.C.C.C.C.C.C.C.3 8 8 j Y #.-.3.&.( 0 + C.C.C.C.C.",
"C.C.C.C.C.C.C.C.C.C.C.C.C.C.C.C.- = s ) -.s.d.3.) q @ + C.C.C.C.",
"C.C.C.C.C.C.C.C.C.C.C.C.C.C.C.C.0 q c +.0.l.k.3.) 9 @ $ C.C.C.C.",
"C.C.C.C.C.C.C.C.C.C.C.C.C.C.C.V ( ) +.=.8.i.t.*.Z < @ $ C.C.C.C.",
"C.C.C.C.C.C.C.C.C.+ $ $ $ $ 0 ( &.3.0.8.9.w.1.{ v , @ $ C.C.C.C.",
"C.C.C.C.C.C.C.C.+ @ @ @ @ @ q ) 3.d.l.i.w.<...K d ; @ $ C.C.C.C.",
"C.C.C.C.C.C.C.C.> ; ; , < 9 V @.u.x.m.j.w.;.~ N y ; @ $ C.C.C.C.",
"C.C.C.C.C.C.C.3 8 u d v Z ) @.6.s.b.m.f.7.%.E N t ; @ $ C.C.C.C.",
"C.C.C.C.C.+ > 8 g n K { *.3.u.s.z.M.m.f.5.$.E n e ; @ $ C.C.C.C.",
"C.C.C.C.+ @ ; u n P ..1.t.k.x.b.M.N.m.a.5.o.P n e ; @ $ C.C.C.C.",
"C.C.C.C.$ @ ; y B ~ :.w.j.m.B.B.B.B.v.p.4.X.R N i 2 = : C.C.C.C.",
"C.C.C.C.$ @ ; y B ~ :.w.j.m.B.B.B.V.c.y.2.X.W H b i w w C.C.C.C.",
"C.C.C.C.$ @ ; y B ~ :.w.j.m.B.B.V.C.C.q.,.} ~ E H N n m C.C.C.C.",
"C.C.C.C.$ @ ; y B ~ :.w.j.m.B.V.C.C.C.C.O. .` ~ W R T P C.C.C.C.",
"C.C.C.C.+ @ ; t B ~ :.e.g.n.B.V.C.C.C.C.| | [ ' _ ^ Q ^ C.C.C.C.",
"C.C.C.C.C.+ : p A ! >.r.h.m.V.C.C.C.C.C.C.| ] ` ` _ ^ C.C.C.C.C.",
"C.C.C.C.C.C.C.C.C.C.C.C.C.C.C.C.C.C.C.C.C.C.C.C.C.C.C.C.C.C.C.C.",
"C.C.C.C.C.C.C.C.C.C.C.C.C.C.C.C.C.C.C.C.C.C.C.C.C.C.C.C.C.C.C.C.",
"C.C.C.C.C.C.C.C.C.C.C.C.C.C.C.C.C.C.C.C.C.C.C.C.C.C.C.C.C.C.C.C.",
"C.C.C.C.C.C.C.C.C.C.C.C.C.C.C.C.C.C.C.C.C.C.C.C.C.C.C.C.C.C.C.C."
};
