/* XPM */
static char *result[] = {
/* columns rows colors chars-per-pixel */
"32 64 201 2 ",
"   c #BD3300",
".  c #BC3301",
"X  c #BD3301",
"o  c #BD3302",
"O  c #BD3401",
"+  c #BD3402",
"@  c #BD3403",
"#  c #BE3402",
"$  c #BE3502",
"%  c #BE3403",
"&  c #BE3503",
"*  c #BF3503",
"=  c #BF3603",
"-  c #BE3604",
";  c #BF3604",
":  c #BF3605",
">  c #BF3705",
",  c #BF3706",
"<  c #C03604",
"1  c #C03704",
"2  c #C13704",
"3  c #C03605",
"4  c #C13705",
"5  c #C03706",
"6  c #C13905",
"7  c #C03806",
"8  c #C03906",
"9  c #C03807",
"0  c #C13807",
"q  c #C13907",
"w  c #C23806",
"e  c #C33806",
"r  c #C23906",
"t  c #C23807",
"y  c #C23907",
"u  c #C33907",
"i  c #C23A07",
"p  c #C33A07",
"a  c #C43907",
"s  c #C43A06",
"d  c #C13908",
"f  c #C13A08",
"g  c #C23A08",
"h  c #C33A08",
"j  c #C33B09",
"k  c #C43908",
"l  c #C43A08",
"z  c #C53A08",
"x  c #C43B08",
"c  c #C53B08",
"v  c #C43A09",
"b  c #C53A09",
"n  c #C43B09",
"m  c #C53B09",
"M  c #C63B09",
"N  c #C53C09",
"B  c #C63C09",
"V  c #C53C0A",
"C  c #C53D0A",
"Z  c #C43C0B",
"A  c #C53D0B",
"S  c #C63C0A",
"D  c #C73C0A",
"F  c #C63D0A",
"G  c #C73D0A",
"H  c #C63D0B",
"J  c #C73D0B",
"K  c #C73E0B",
"L  c #C43D0C",
"P  c #C73E0C",
"I  c #C73E0D",
"U  c #C83D0A",
"Y  c #C83D0B",
"T  c #C83E0B",
"R  c #C83E0C",
"E  c #C93E0C",
"W  c #C83F0C",
"Q  c #C93F0C",
"!  c #C83F0D",
"~  c #C93F0D",
"^  c #CA3E0C",
"/  c #CA3F0C",
"(  c #CA3F0D",
")  c #C93F0E",
"_  c #C7400D",
"`  c #C7400F",
"'  c #C7410F",
"]  c #C9400D",
"[  c #CA400D",
"{  c #CB400D",
"}  c #C8400F",
"|  c #CA400E",
" . c #CB400E",
".. c #CB410E",
"X. c #CB410F",
"o. c #CB420F",
"O. c #CC410E",
"+. c #CC410F",
"@. c #CC420E",
"#. c #CC420F",
"$. c #CD420F",
"%. c #CE420F",
"&. c #C74010",
"*. c #C74110",
"=. c #C84211",
"-. c #C94211",
";. c #CB4211",
":. c #CA4311",
">. c #CB4311",
",. c #C84312",
"<. c #C94312",
"1. c #C94313",
"2. c #CA4312",
"3. c #CB4312",
"4. c #CC4210",
"5. c #CD4210",
"6. c #CD4310",
"7. c #CC4211",
"8. c #CD4211",
"9. c #CC4311",
"0. c #CD4311",
"q. c #CE4210",
"w. c #CE4310",
"e. c #CF4310",
"r. c #CE4311",
"t. c #C94413",
"y. c #CC4411",
"u. c #CD4411",
"i. c #CE4411",
"p. c #CE4412",
"a. c #CE4512",
"s. c #CF4512",
"d. c #CE4513",
"f. c #CF4513",
"g. c #CE4613",
"h. c #CF4613",
"j. c #CC4515",
"k. c #CD4614",
"l. c #CF4714",
"z. c #CF4615",
"x. c #CE4715",
"c. c #CC4716",
"v. c #CF4816",
"b. c #CF4918",
"n. c #CF4A19",
"m. c #CE4A1A",
"M. c #CF4A1A",
"N. c #CF4B1A",
"B. c #CF4B1B",
"V. c #D04714",
"C. c #D04715",
"Z. c #D14817",
"A. c #D14917",
"S. c #D24A17",
"D. c #D04A18",
"F. c #D14A18",
"G. c #D04A19",
"H. c #D14A19",
"J. c #D14B19",
"K. c #D24B1A",
"L. c #D04C1B",
"P. c #D24C1A",
"I. c #D34C1A",
"U. c #D34C1B",
"Y. c #D24D1B",
"T. c #D44C1A",
"R. c #D44D1B",
"E. c #D04C1C",
"W. c #D14C1C",
"Q. c #D14D1C",
"!. c #D14D1D",
"~. c #D34D1C",
"^. c #D34D1D",
"/. c #D44D1C",
"(. c #D44E1C",
"). c #D44F1D",
"_. c #D5501F",
"`. c #D55020",
"'. c #D55120",
"]. c #D65020",
"[. c #D65121",
"{. c #D65221",
"}. c #D75221",
"|. c #D65122",
" X c #D65222",
".X c #D75323",
"XX c #D65424",
"oX c #D65425",
"OX c #D85323",
"+X c #D85626",
"@X c #DA5628",
"#X c #DA5728",
"$X c #DA5828",
"%X c #DA5928",
"&X c #DB592A",
"*X c #DB5A2B",
"=X c #DC5A2B",
"-X c #DC5B2B",
";X c #DE5E2F",
":X c #DE5E30",
">X c None",
/* pixels */
">X>X>X>X>X>X>X>X>X>X>X>X>X>X>X>X>X>X>X>X>X>X>X>X>X>X>X>X>X>X>X>X",
">X>X>X>X>X>X>X>X>X>X>X>X>X>X>X>X>X>X>X>X>X>X>X>X>X>X>X>X>X>X>X>X",
">X>X>X>X>X>X>X>X>X>X>X>X>X>X>X>X>X>X>X>X>X>X>X>X>X>X>X>X>X>X>X>X",
">X>X>X>X>X>X>X>X>X>X>X>X>X>X>X>X>X>X>X>X>X>X>X>X>X>X>X>X>X>X>X>X",
">X>X>X>X>X>X>X>X>X>X>X>X>X>X>X>X>X>X>X>X>X>X>X>X>X>X>X>X>X>X>X>X",
">X>X>X>X>X>X>X>X>X>X>X>X>X>X>X>X>X>X>X>X>X>X>X>X>X>X>X>X>X>X>X>X",
">X>X>X>X>X>X>X>X>X>X>X>X>X>X>X>X>X>X>X>X>X>X>X>X>X>X>X>X>X>X>X>X",
">X>X>X>X>X>X>X>X>X>X>X>X>X>X>X>X>X>X>X>X>X>X>X>X>X>X>X>X>X>X>X>X",
">X>X>X>X>X>X>X>X>X>X>X>X>X>X>X>X>X>X>X>X>X>X>X>X>X>X>X>X>X>X>X>X",
">X>X>X>X>X>X>X>X>X>X>X>X>X>X>X>X>X>X>X>X>X>X>X>X>X>X>X>X>X>X>X>X",
">X>X>X>X>X>X>X>X>X>X>X>X>X>X>X>X>X>X>X>X>X>X>X>X>X>X>X>X>X>X>X>X",
">X>X>X>X>X>X>X>X>X>X>X>X>X>X>X>X>X>X>X>X>X>X>X>X>X>X>X>X>X>X>X>X",
">X>X>X>X>X>X>X>X>X>X>X>X>X>X>X>X>X>X>X>X>X>X>X>X>X>X>X>X>X>X>X>X",
">X>X>X>X>X>X>X>X>X>X>X>X>X>X>X>X>X>X>X>X>X>X>X>X>X>X>X>X>X>X>X>X",
">X>X>X>X>X>X>X>X>X>X>X>X>X>X>X>X>X>X>X>X>X>X>X>X>X>X>X>X>X>X>X>X",
">X>X>X>X>X>X>X>X>X>X>X>X>X>X>X>X>X>X>X>X>X>X>X>X>X>X>X>X>X>X>X>X",
">X>X>X>X>X>X>X>X>X>X>X>X>X    >X>X>X>X>X>X$.$.>X>X>X>X>X>X>X>X>X",
">X>X>X>X>X>X>X>X>X>X>X>X  . .   >X>X>X>X$.O.O.$.>X>X>X>X>X>X>X>X",
">X>X>X>X>X>X>X>X>X>X>X>X= & $ @ >X>X>X>X .O.O.$.>X>X>X>X>X>X>X>X",
">X>X>X>X>X>X>X>X>X>X>XG c h y 6 3 >X>X>XT  .$.>X>X>X>X>X>X>X>X>X",
">X>X>X>X>X  * w G X.$.( E Y S h 6 @ + 2 >X>X>X>X>X>X>X>X>X>X>X>X",
">X>X>X>X  . $ t U ..w.#.#.O./ S y $ . + >X>X>X>X>X>X>X>X>X>X>X>X",
">X>X>X>X  . $ y S / ..#.#.6.O.Y h & . + >X>X>X>X>X>X>X>X>X>X>X>X",
">X>X>X>X>X  @ 6 h S Y E ..#.#.E c = + 2 >X>X>X>X>X>X>X>X>X>X>X>X",
">X>X>X>X>X>X>X3 6 y l D E #.#.( G >X>X>XT  .[ G w *   >X>X>X>X>X",
">X>X>X>X>X>X>X>X@ $ < l Y ..w.$.>X>X>X>X .O.| F w $ .   >X>X>X>X",
">X>X>X>X>X>X>X>X@ $ < u D ( o.7.>X>X>X>Xa.4.[ F i & .   >X>X>X>X",
">X>X>X>X>X>X>X3 6 y u l M D R 9.n.>X>X~.C.i.X.R x =   >X>X>X>X>X",
"w.w.X.G w * @ 6 h S D M l u N 2.L.@X&X].H.a.$.( C >X>X>X>X>X>X>X",
"w.w...U t $ $ y S / ( D u < f ,.!.%X*XOXT.h.6.#.>X>X>X>X>X>X>X>X",
"w.w...S w & & w M E ( D u < g <.E.+X#X[.I.h.w.w.>X>X>X>X>X>X>X>X",
"w.w.) m 4 + + < u M D M l u V >.b._.[./.S.s.w.w.>X>X>X>X>X>X>X>X",
">X>X>Xi ; + + & < w u l M D E ;.z.H.K.A.V.i.w.w.>X>X>X>X>X>X>X>X",
">X>X>X>XO O . + + & < u D ( #.6.0.a.d.p.i.6.w.w.>X>X>X>X>X>X>X>X",
">X>X>X>XO O . . . . $ y S / ..@.+.#.#.+.@...X.X.>X>X>X>X>X>X>X>X",
">X>X>Xi ; + . X . . @ 6 h S Y E [ ....[ E Y J R Q >X>X>X>X>X>X>X",
"w.w.) m 4 + . . o >X>X3 6 y l S R ....R S l p B G { $.>X>X>X>X>X",
"w.w...S w & . . >X>X>X>X@ $ < p G [ [ G p < ; p G [ O.$.>X>X>X>X",
"w.w...S w & . . >X>X>X>X8 9 d n H W R N y ; < p G [ #.@.>X>X>X>X",
"w.w.) m 4 + . . o >X>XL &.=.=.` I F m z l u l S R ..#.@.>X>X>X>X",
">X>X>Xi ; + . X . . 8 &.c.L.B.j.} v e a b D Y E [ ..#.@.>X>X>X>X",
">X>X>X>XO O . . . . 9 =.L.oXXXN.-.0 = r S ~ ..@.+.#.#.@.>X>X>X>X",
">X>X>X>X  . . . . . 7 *.M.XXXXm.' > + w F ..6.$...| [ { >X>X>X>X",
">X>X>X>X>X  . . X . : L t.M.m.1.Z - + w F ..#...E J G G Q >X>X>X",
">X>X>X>X>X>X>Xo . . & q L *.*.Z 0 + + w F ..#.^ S p p B R X.w.w.",
">X>X>X>X>X>X>X>X. . + & : 7 , ; + . + w F ....Y l < ; p J X.w.w.",
">X>X>X>X>X>X>X>X; = & & & & & % # + < p K ....Y l < < p J X.w.w.",
">X>X>X>X>X>X>XG x h u u u u y u u e k D Q #.#.E D l p B R X.w.w.",
">X>X>X>X>X$.o.] W P K K K K K J Y J T ( ..#.#...E Y J R ( >X>X>X",
">X>X>X>X$.O.#.#.#.#.#.#.#.#.#.#.#.o.#.#.6.6.6.#.#...X.X.>X>X>X>X",
">X>X>X>X$.O.4.$.6.6.i.s.h.V.l.d.u.4.#.$.6.6.w.w.w.w.5.0.>X>X>X>X",
">X>X>X>X>X$.#.6.5.6.a.C.F.U.P.v.y.] R (  .$.6.w.q.8.0.>X>X>X>X>X",
">X>X>X>X>X>X>X%.6.$.a.A.(.}.'.G.3.A l F Q ..$.5.$.>X>X>X>X>X>X>X",
">X>X>X>X>X>X>X>X#.4.d.K.{.$X+XQ.<.g 1 h J | #.#.>X>X>X>X>X>X>X>X",
">X>X>X>X>X>X>X>X#.4.a.J.`.+XoXL.=.9 = j ! 9.h.g.>X>X>X>X>X>X>X>X",
">X>X>X>X>X>X>X%.6.$.u.x.D.W.L.c.&.8 5 _ k.J.I.J.Z.>X>X>X>X>X>X>X",
">X>X>X>X>X$.#.6.5.6.6.9.:.<.=.&.L >X>Xx.^.|. X).J.g.$.>X>X>X>X>X",
">X>X>X>X$.O.4.$.6.6.4.~ C g 9 8 >X>X>X>X$X*X#X XI.h.O.$.>X>X>X>X",
">X>X>X>X$.O.$.5.w.r.#.K y & .   >X>X>X>X:X;X=X.XY.g.O.$.>X>X>X>X",
">X>X>X>X>X$.5.6.6.e.@.Y s *   >X>X>X>X>X>X:X-X.XR.f.$.>X>X>X>X>X",
">X>X>X>X>X>X>X>X>X>X>X>X>X>X>X>X>X>X>X>X>X>X>X>X>X>X>X>X>X>X>X>X",
">X>X>X>X>X>X>X>X>X>X>X>X>X>X>X>X>X>X>X>X>X>X>X>X>X>X>X>X>X>X>X>X",
">X>X>X>X>X>X>X>X>X>X>X>X>X>X>X>X>X>X>X>X>X>X>X>X>X>X>X>X>X>X>X>X",
">X>X>X>X>X>X>X>X>X>X>X>X>X>X>X>X>X>X>X>X>X>X>X>X>X>X>X>X>X>X>X>X"
};
