/* XPM */
static char *result[] = {
/* columns rows colors chars-per-pixel */
"32 64 210 2 ",
"   c #BA3100",
".  c #BB3100",
"X  c #BB3200",
"o  c #BC3100",
"O  c #BC3200",
"+  c #BD3300",
"@  c #BC3301",
"#  c #BC3302",
"$  c #BD3302",
"%  c #BD3401",
"&  c #BD3402",
"*  c #BE3402",
"=  c #BE3502",
"-  c #BF3403",
";  c #BE3503",
":  c #BF3503",
">  c #BF3603",
",  c #BF3604",
"<  c #BF3705",
"1  c #C03503",
"2  c #C03504",
"3  c #C03604",
"4  c #C03605",
"5  c #C03705",
"6  c #C13705",
"7  c #C23706",
"8  c #C23805",
"9  c #C03806",
"0  c #C13806",
"q  c #C03906",
"w  c #C03807",
"e  c #C13907",
"r  c #C23806",
"t  c #C33806",
"y  c #C23906",
"u  c #C33906",
"i  c #C23907",
"p  c #C33907",
"a  c #C23A07",
"s  c #C33A07",
"d  c #C43907",
"f  c #C43A06",
"g  c #C43A07",
"h  c #C13908",
"j  c #C23A08",
"k  c #C33A08",
"l  c #C33B0A",
"z  c #C43A08",
"x  c #C53A08",
"c  c #C43B08",
"v  c #C53B08",
"b  c #C53A09",
"n  c #C43B09",
"m  c #C53B09",
"M  c #C53B0A",
"N  c #C53C09",
"B  c #C63C09",
"V  c #C53C0A",
"C  c #C53D0A",
"Z  c #C43C0B",
"A  c #C43D0B",
"S  c #C63C0A",
"D  c #C73C0A",
"F  c #C73D0A",
"G  c #C73D0B",
"H  c #C73E0B",
"J  c #C43D0C",
"K  c #C63D0C",
"L  c #C73F0C",
"P  c #C63F0E",
"I  c #C83C0A",
"U  c #C83D0B",
"Y  c #C83E0B",
"T  c #C83F0B",
"R  c #C83E0C",
"E  c #C93E0C",
"W  c #C83F0C",
"Q  c #C93F0C",
"!  c #C83E0D",
"~  c #C83F0D",
"^  c #C93F0D",
"/  c #CA3E0C",
"(  c #CA3F0D",
")  c #C93F0E",
"_  c #C9400D",
"`  c #CA400D",
"'  c #C8400F",
"]  c #C8410F",
"[  c #CA400E",
"{  c #CB410E",
"}  c #CB410F",
"|  c #CA420F",
" . c #CB420F",
".. c #CC410E",
"X. c #CC410F",
"o. c #CC420E",
"O. c #CC420F",
"+. c #CD420F",
"@. c #CC430F",
"#. c #CE420F",
"$. c #CE430F",
"%. c #C74010",
"&. c #C94210",
"*. c #C84211",
"=. c #C94211",
"-. c #C94311",
";. c #CB4211",
":. c #CA4311",
">. c #CB4311",
",. c #C94312",
"<. c #CA4312",
"1. c #CC4210",
"2. c #CD4210",
"3. c #CC4310",
"4. c #CD4310",
"5. c #CD4211",
"6. c #CC4311",
"7. c #CD4311",
"8. c #CE4210",
"9. c #CE4310",
"0. c #CF4310",
"q. c #CE4311",
"w. c #CA4413",
"e. c #CD4411",
"r. c #CE4411",
"t. c #CE4412",
"y. c #CE4512",
"u. c #CE4513",
"i. c #CF4513",
"p. c #CE4613",
"a. c #CF4613",
"s. c #CB4514",
"d. c #CC4515",
"f. c #CE4514",
"g. c #CC4615",
"h. c #CF4614",
"j. c #CF4714",
"k. c #CE4715",
"l. c #CF4715",
"z. c #CC4716",
"x. c #CD4716",
"c. c #CF4816",
"v. c #CE4818",
"b. c #CF4B1B",
"n. c #D04614",
"m. c #D04816",
"M. c #D04916",
"N. c #D14817",
"B. c #D04918",
"V. c #D14919",
"C. c #D04A18",
"Z. c #D14B19",
"A. c #D24B19",
"S. c #D04B1A",
"D. c #D14B1A",
"F. c #D04C1B",
"G. c #D34C1A",
"H. c #D34C1B",
"J. c #D24D1B",
"K. c #D34D1B",
"L. c #D44D1B",
"P. c #D14B1C",
"I. c #D04C1C",
"U. c #D14C1C",
"Y. c #D14D1C",
"T. c #D04C1D",
"R. c #D14D1D",
"E. c #D24D1C",
"W. c #D24E1D",
"Q. c #D24F1E",
"!. c #D44D1C",
"~. c #D44F1D",
"^. c #D44F1F",
"/. c #D5501E",
"(. c #D34F20",
"). c #D35020",
"_. c #D55020",
"`. c #D55121",
"'. c #D65121",
"]. c #D65222",
"[. c #D75222",
"{. c #D75322",
"}. c #D75323",
"|. c #D65324",
" X c #D65424",
".X c #D65425",
"XX c #D75627",
"oX c #D85323",
"OX c #D85424",
"+X c #D85524",
"@X c #D85626",
"#X c #D95626",
"$X c #D85627",
"%X c #DA5727",
"&X c #D95728",
"*X c #DA5728",
"=X c #D95828",
"-X c #DA5828",
";X c #DA5929",
":X c #DA592A",
">X c #DB5A2A",
",X c #DB5A2B",
"<X c #DC5A2B",
"1X c #DC5B2B",
"2X c #DD5C2C",
"3X c #DC5C2D",
"4X c #DD5D2D",
"5X c #DD5D2E",
"6X c #DE5E2E",
"7X c None",
/* pixels */
"7X7X7X7X7X7X7X7X7X7X7X7X7X7X7X7X7X7X7X7X7X7X7X7X7X7X7X7X7X7X7X7X",
"7X7X7X7X7X7X7X7X7X7X7X7X7X7X7X7X7X7X7X7X7X7X7X7X7X7X7X7X7X7X7X7X",
"7X7X7X7X7X7X7X7X7X7X7X7X7X7X7X7X7X7X7X7X7X7X7X7X7X7X7X7X7X7X7X7X",
"7X7X7X7X7X7X7X7X7X7X7X7X7X7X7X7X7X7X7X7X7X7X7X7X7X7X7X7X7X7X7X7X",
"7X7X7X7X7X7X7X7X7X7X7X7X7X7X7X7X7X7X7X7X7X7X7X7X7X7X7X7X7X7X7X7X",
"7X7X7X7X7X7X7X7X7X7X7X7X7X7X7X7X7X7X7X7X7X7X7X7X7X7X7X7X7X7X7X7X",
"7X7X7X7X7X7X7X7X7X7X7X7X7X7X7X7X7X7X7X7X7X7X7X7X7X7X7X7X7X7X7X7X",
"7X7X7X7X7X7X7X7X7X7X7X7X7X7X7X7X7X7X7X7X7X7X7X7X7X7X7X7X7X7X7X7X",
"7X7X7X7X7X7X7X7X7X7X7X7X7X7X7X7X7X7X7X7X7X7X7X7X7X7X7X7X7X7X7X7X",
"7X7X7X7X7X7X7X7X7X7X7X7X7X7X7X7X7X7X7X7X7X7X7X7X7X7X7X7X7X7X7X7X",
"7X7X7X7X7X7X7X7X7X7X7X7X7X7X7X7X7X7X7X7X7X7X7X7X7X7X7X7X7X7X7X7X",
"7X7X7X7X7X7X7X7X7X7X7X7X7X7X7X7X7X7X7X7X7X7X7X7X7X7X7X7X7X7X7X7X",
"7X7X7X7X7X7X7X7X7X7X7X7X7X7X7X7X7X7X7X7X7X7X7X7X7X7X7X7X7X7X7X7X",
"7X7X7X7X7X7X7X7X7X7X7X7X7X7X7X7X7X7X7X7X7X7X7X7X7X7X7X7X7X7X7X7X",
"7X7X7X7X7X7X7X7X7X7X7X7X7X7X7X7X7X7X7X7X7X7X7X7X7X7X7X7X7X7X7X7X",
"7X7X7X7X7X7X7X7X7X7X7X7X7X7X7X7X7X7X7X7X7X7X7X7X7X7X7X7X7X7X7X7X",
"7X7X7X7X7X7X7X7X7X7.7.7X7X7X7X7X7X7.7.7X7X7X7X7X7X7X7X7X7X7X7X7X",
"7X7X7X7X7X7X7X7X7.2.2.7.7X7X7X7X7.2.2.7.7X7X7X7X7X7X7X7X7X7X7X7X",
"7X7X7X7X7X7X7X7XX.2.9.#.7X7X7X7X#.9.2.7.7X7X7X7X7X7X7X7X7X7X7X7X",
"7X7X7X7X7X7X7X7XT X.#.$.7X7X7X7X$.#.7.7X7X7X7X7X7X7X7X7X7X7X7X7X",
"7X7X7X7X7XX $ 2 7X7X7X7XO.O.O.O.7X7X7X7X7X7X7X7X7X7X7X7X7X7X7X7X",
"7X7X7X7XX o O $ 7X7X7X7XO.@.@.O.7X7X7X7X7X7X7X7X7X7X7X7X7X7X7X7X",
"7X7X7X7X* * * 1 7X7X7X7Xp.a.p.y.7X7X7X7X7X7X7X7X7X7X7X7X7X7X7X7X",
"7X7X7X7Xu t p z V 7X7XN.Z.G.D.c.&.7X7X7X7X7X7X7X7X7X7X7X7X7X7X7X",
"7X7X7X7XI D U R ( +.j.A./.].`.S.=.9 * u I } 7.7X7X7X7X7X7X7X7X7X",
"7X7X7X7X} ....O.O.2.h.K.[.&XXXY.,.9 * t D ..2.7.7X7X7X7X7X7X7X7X",
"7X7X7X7XX.2.2.O.O...r.A.[.,X=XY.,.e : u D ..2.7.7X7X7X7X7X7X7X7X",
"7X7X7X7XT X.+.( R U _ f.W.-X$XP.<.M u c Y ..7.7X7X7X7X7X7X7X7X7X",
"O O $ 2 7X7X7XV z p z ~ x.7X7XV.;.W D Y W 7X7X7X7X7X7X7X7X7X7X7X",
"O O O $ 7X7X7X7X1 * * 4 7X7X7X7X5.X.....7X7X7X7X7X7X7X7X7X7X7X7X",
"O O O $ 7X7X7X7X$ O   . 7X7X7X7X+.2.9.9.7X7X7X7X7X7X7X7X7X7X7X7X",
"O O $ 2 7X7X7X7X2 $ .   7X7X7XV ( O.9.9.7X7X7X7X7X7X7X7X7X7X7X7X",
"7X7X7X7XT X.X.T 7X7X7X7X  . 1 z R O.9.9.7X7X7X7X7X7X7X7X7X7X7X7X",
"7X7X7X7XX.2.2.X.7X7X7X7X.   * p U ..9.9.7X7X7X7X7X7X7X7X7X7X7X7X",
"7X7X7X7X#.9.2.7.7X7X7X7X& & > y S ^ } } 7X7X7X7X7X7X7X7X7X7X7X7X",
"7X7X7X7X$.#.7.7X7X7X7X7X8 7 t d b D G R ( 7X7X7X7X7X7X7X7X7X7X7X",
"9.9.#.$.7X7X7X7X7X7X7X7XM B m x z p s B R } 7.7X7X7X7X7X7X7X7X7X",
"9.9.9.#.7X7X7X7X7X7X7X7X` _ R N i , 3 s G } 2.7.7X7X7X7X7X7X7X7X",
"9.9.9.#.7X7X7X7X7X7X7X7Xp.a.6.L k ; ; r S { 9.#.7X7X7X7X7X7X7X7X",
"9.9.#.$.7X7X7X7X7X7X7XN.Z.G.B.:.A , & 6 m ) #.$.7X7X7X7X7X7X7X7X",
"7X7X7X7X$.#.2.2.1.o.p.Z.~.].^.x.P < & , a 7X7X7X$.#.7.7X7X7X7X7X",
"7X7X7X7X#.9.4.4.@.O.a.G.].*X@XF.*.9 % % 7X7X7X7X#.9.2.7.7X7X7X7X",
"7X7X7X7Xi.n.h.n.i.u.m.J.`.@X Xb.*.h ; > 7X7X7X7X5.9.9.9.7X7X7X7X",
"7X7X7X7XK.!.!.H.H.H.J.E.E.R.b.d.' n k v F 7X7X5.2.9.9.9.7X7X7X7X",
"7X7X7X7X}.OXoXoX}.}.`.E.v.s.=.] ! U U E ( +.5.2.3.4.9.9.7X7X7X7X",
"7X7X7X7X1X<X<X<X<X<X@XR.s.l e n H ` ..O.O.9.9.9.4.9.9.9.7X7X7X7X",
"7X7X7X7X1X<X1X2X4X6X:X(.g.Z e V W  .4.4.4.4.4.4.4.4.9.9.7X7X7X7X",
"7X7X7X7X}.}.+X%X>X4X,X|.T.g.-.:.>.3.4.4.4.4.4.4.4.4.9.9.7X7X7X7X",
"7X7X7X7XL.J.~.{.%X2X3X=X|.(.I.C.l.t.4.4.4.4.4.4.4.4.9.9.7X7X7X7X",
"7X7X7X7Xi.p.M.~.+X1X5X3X,X:X#X_.A.a.4.4.4.4.4.4.4.4.9.9.7X7X7X7X",
"7X7X7X7X+...a.G.].*X1X2X4X6X,X}.G.y.{ O.O.4.9.9.9.9.2.7.7X7X7X7X",
"7X7X7X7X7X+.p.Z.~.].+X%X>X4X>X'.B.| U / { +.4.9.8.5.7.7X7X7X7X7X",
"7X7X7X7X7X7X7XN.Z.G.~.{.%X2X:X).x.K z S E { +.2.+.7X7X7X7X7X7X7X",
"7X7X7X7X7X7X7X7Xp.a.M.~.+X1X;XQ.w.j 3 s G [ O.O.7X7X7X7X7X7X7X7X",
"7X7X7X7X7X7X7X7XO.1.y.Z._.@X.XF.*.w = 8 N W ` Q 7X7X7X7X7X7X7X7X",
"7X7X7X7X7X7X7X#.4.+.e.k.C.U.F.z.%.q - 8 g N V c a 7X7X7X7X7X7X7X",
"7X7X7X7X7X+.O.4.2.4.4.6.:.,.*.%.J 7X7X4 8 8 0 5 , % + 7X7X7X7X7X",
"7X7X7X7X+...1.+.4.4.1.^ C j w q 7X7X7X7X- = = & & % @ + 7X7X7X7X",
"7X7X7X7X+...+.2.9.q.O.H i ; @ + 7X7X7X7X+ @ @ @ @ @ @ + 7X7X7X7X",
"7X7X7X7X7X+.2.4.4.0.o.U f : + 7X7X7X7X7X7X+ # # # # + 7X7X7X7X7X",
"7X7X7X7X7X7X7X7X7X7X7X7X7X7X7X7X7X7X7X7X7X7X7X7X7X7X7X7X7X7X7X7X",
"7X7X7X7X7X7X7X7X7X7X7X7X7X7X7X7X7X7X7X7X7X7X7X7X7X7X7X7X7X7X7X7X",
"7X7X7X7X7X7X7X7X7X7X7X7X7X7X7X7X7X7X7X7X7X7X7X7X7X7X7X7X7X7X7X7X",
"7X7X7X7X7X7X7X7X7X7X7X7X7X7X7X7X7X7X7X7X7X7X7X7X7X7X7X7X7X7X7X7X"
};
