/* XPM */
static char *result[] = {
/* columns rows colors chars-per-pixel */
"32 64 196 2 ",
"   c #BB3200",
".  c #BC3100",
"X  c #BD3300",
"o  c #BC3301",
"O  c #BD3302",
"+  c #BD3402",
"@  c #BD3403",
"#  c #BE3402",
"$  c #BE3502",
"%  c #BE3503",
"&  c #BF3503",
"*  c #BF3604",
"=  c #C03503",
"-  c #C03604",
";  c #C03605",
":  c #C03705",
">  c #C23706",
",  c #C13905",
"<  c #C23805",
"1  c #C03806",
"2  c #C03807",
"3  c #C13807",
"4  c #C23806",
"5  c #C33806",
"6  c #C23906",
"7  c #C33906",
"8  c #C23807",
"9  c #C23907",
"0  c #C33907",
"q  c #C33A07",
"w  c #C43907",
"e  c #C13A08",
"r  c #C23A08",
"t  c #C33A08",
"y  c #C43A08",
"u  c #C43B08",
"i  c #C53B08",
"p  c #C43B09",
"a  c #C63B09",
"s  c #C43B0A",
"d  c #C53B0A",
"f  c #C53C09",
"g  c #C63C09",
"h  c #C53C0A",
"j  c #C43D0B",
"k  c #C53D0B",
"l  c #C63C0A",
"z  c #C73C0A",
"x  c #C63D0A",
"c  c #C73D0A",
"v  c #C73E0B",
"b  c #C83C0A",
"n  c #C83D0A",
"m  c #C83D0B",
"M  c #C93E0B",
"N  c #C83E0C",
"B  c #C93E0C",
"V  c #C83F0C",
"C  c #C93F0C",
"Z  c #C83F0D",
"A  c #C93F0D",
"S  c #CA3F0C",
"D  c #CA3F0D",
"F  c #C9400D",
"G  c #CA400D",
"H  c #CB400D",
"J  c #C9400E",
"K  c #CA400E",
"L  c #CB400E",
"P  c #CA410E",
"I  c #CB410E",
"U  c #CB410F",
"Y  c #CB420F",
"T  c #CC410E",
"R  c #CC410F",
"E  c #CC420E",
"W  c #CC420F",
"Q  c #CD420F",
"!  c #CC430F",
"~  c #CD430F",
"^  c #CE420F",
"/  c #CE430F",
"(  c #C94210",
")  c #C94211",
"_  c #CA4210",
"`  c #CB4210",
"'  c #CA4310",
"]  c #CA4311",
"[  c #C84312",
"{  c #C94312",
"}  c #CA4312",
"|  c #CB4312",
" . c #CC4110",
".. c #CC4210",
"X. c #CD4210",
"o. c #CD4310",
"O. c #CC4211",
"+. c #CD4211",
"@. c #CC4311",
"#. c #CD4311",
"$. c #CE4310",
"%. c #CF4310",
"&. c #CE4311",
"*. c #CC4411",
"=. c #CD4411",
"-. c #CE4410",
";. c #CE4510",
":. c #CE4411",
">. c #CE4511",
",. c #CD4513",
"<. c #CE4412",
"1. c #CE4512",
"2. c #CE4513",
"3. c #CE4613",
"4. c #CF4613",
"5. c #CB4514",
"6. c #CD4614",
"7. c #CE4614",
"8. c #CF4614",
"9. c #CF4714",
"0. c #CF4816",
"q. c #CF4918",
"w. c #CF4819",
"e. c #CE4919",
"r. c #CF4A19",
"t. c #D04714",
"y. c #D04715",
"u. c #D04815",
"i. c #D04816",
"p. c #D14916",
"a. c #D14817",
"s. c #D04917",
"d. c #D14A18",
"f. c #D04A19",
"g. c #D14A19",
"h. c #D14B19",
"j. c #D24B18",
"k. c #D24B19",
"l. c #D04B1A",
"z. c #D14B1A",
"x. c #D04C1B",
"c. c #D24C1A",
"v. c #D34C1A",
"b. c #D34D1B",
"n. c #D14C1C",
"m. c #D14D1C",
"M. c #D14D1D",
"N. c #D24D1C",
"B. c #D34D1C",
"V. c #D24D1D",
"C. c #D14E1D",
"Z. c #D14E1E",
"A. c #D24F1E",
"S. c #D44D1C",
"D. c #D44E1C",
"F. c #D44E1D",
"G. c #D54E1D",
"H. c #D44F1D",
"J. c #D5501F",
"K. c #D5511F",
"L. c #D6511F",
"P. c #D55120",
"I. c #D55121",
"U. c #D65120",
"Y. c #D65222",
"T. c #D75222",
"R. c #D75423",
"E. c #D75627",
"W. c #D85423",
"Q. c #D85523",
"!. c #D95523",
"~. c #D85424",
"^. c #D85525",
"/. c #D85626",
"(. c #D85627",
"). c #DA5726",
"_. c #DA5727",
"`. c #DA5628",
"'. c #DA5728",
"]. c #D95828",
"[. c #DA5928",
"{. c #DA5929",
"}. c #DA582A",
"|. c #DB592A",
" X c #DB5A2B",
".X c #DC592A",
"XX c #DC5A2B",
"oX c #DC5B2B",
"OX c #DC5B2C",
"+X c #DC5C2C",
"@X c #DD5C2D",
"#X c #DD5C2E",
"$X c #DD5D2E",
"%X c #DE5E2F",
"&X c #DE5E30",
"*X c None",
/* pixels */
"*X*X*X*X*X*X*X*X*X*X*X*X*X*X*X*X*X*X*X*X*X*X*X*X*X*X*X*X*X*X*X*X",
"*X*X*X*X*X*X*X*X*X*X*X*X*X*X*X*X*X*X*X*X*X*X*X*X*X*X*X*X*X*X*X*X",
"*X*X*X*X*X*X*X*X*X*X*X*X*X*X*X*X*X*X*X*X*X*X*X*X*X*X*X*X*X*X*X*X",
"*X*X*X*X*X*X*X*X*X*X*X*X*X*X*X*X*X*X*X*X*X*X*X*X*X*X*X*X*X*X*X*X",
"*X*X*X*X*X*X*X*X*X*X*X*X*X*X*X*X*X*X*X*X*X*X*X*X*X*X*X*X*X*X*X*X",
"*X*X*X*X*X*X*X*X*X*X*X*X*X*X*X*X*X*X*X*X*X*X*X*X*X*X*X*X*X*X*X*X",
"*X*X*X*X*X*X*X*X*X*X*X*X*X*X*X*X*X*X*X*X*X*X*X*X*X*X*X*X*X*X*X*X",
"*X*X*X*X*X*X*X*X*X*X*X*X*X*X*X*X*X*X*X*X*X*X*X*X*X*X*X*X*X*X*X*X",
"*X*X*X*X*X*X*X*X*X*X*X*X*X*X*X*X*X*X*X*X*X*X*X*X*X*X*X*X*X*X*X*X",
"*X*X*X*X*X*X*X*X*X*X*X*X*X*X*X*X*X*X*X*X*X*X*X*X*X*X*X*X*X*X*X*X",
"*X*X*X*X*X*X*X*X*X*X*X*X*X*X*X*X*X*X*X*X*X*X*X*X*X*X*X*X*X*X*X*X",
"*X*X*X*X*X*X*X*X*X*X*X*X*X*X*X*X*X*X*X*X*X*X*X*X*X*X*X*X*X*X*X*X",
"*X*X*X*X*X*X*X*X*X*X*X*X*X*X*X*X*X#.#.*X*X*X*X*X*X*X*X*X*X*X*X*X",
"*X*X*X*X*X*X*X*X*X*X*X*X*X*X*X*X#.X.X.#.*X*X*X*X*X*X*X*X*X*X*X*X",
"*X*X*X*X*X*X*X*X*X*X*X*X*X*X*X*XO.o.o.O.*X*X*X*X*X*X*X*X*X*X*X*X",
"*X*X*X*X*X*X*X*X*X*X*X*X*X*X*XW X./ ~ X.+.*X*X*X*X*X*X*X*X*X*X*X",
"*X*X*X*X*X*X*X*X*X  + < d G W  .~ ....~ X.O.#.*X*X*X*X*X*X*X*X*X",
"*X*X*X*X*X*X*X*X  . + > g F W W W W Q ..~ o.X.#.*X*X*X*X*X*X*X*X",
"*X*X*X*X*X*X*X*XO O % w z G W W W W W ! o.o.X.#.*X*X*X*X*X*X*X*X",
"*X*X*X*X*X*X*X% - < w a M P W W T W E ..X.X.#.*X*X*X*X*X*X*X*X*X",
"$.$.U b 7 # O - 9 i z M F I W T W *X*X*X*X*X*X*X*X*X*X*X*X*X*X*X",
"$.$.T z 5 # O < i M G P I W W W *X*X*X*X*X*X*X*X*X*X*X*X*X*X*X*X",
"o.o.T m 0 # + > g F ..o.<.1.3.1.*X*X*X*X*X*X*X*X*X*X*X*X*X*X*X*X",
"o.o.W N y = + < d G 1.y.s.c.z.0.( *X*X*X*X*X*X*X*X*X*X*X*X*X*X*X",
"o.o.W D h *X*X*X*X*X*XB.J.T.I.l.) 1   *X*X*X*X*X*X*X*X*X*X*X*X*X",
"o.o.X.Q *X*X*X*X*X*X*X*X|. XE.m.{ 1 .   *X*X*X*X*X*X*X*X*X*X*X*X",
"$.$.X.#.*X*X*X*X*X*X*X*X&X%X].m.{ 3 + & *X*X*X*X*X*X*X*X*X*X*X*X",
"$.$.#.*X*X*X*X*X*X*X*X*X*X&X(.z.{ s 0 y z *X*X*X*X*X*X*X*X*X*X*X",
"*X*X*X*X*X*X*X*X*X*X*X*X*X*X*Xw._ v g N A W U c 4 & X *X*X*X*X*X",
"*X*X*X*X*X*X*X*X*X*X*X*X*X*X*X*XY G H I Q X.I n 8 $ o X *X*X*X*X",
"*X*X*X*X*X*X*X*X*X*X*X*X*X*X*X*XE W W R E I S l 9 $ o X *X*X*X*X",
"*X*X*X*X*X*X*X*X*X*X*X*X*X*X*X*XE W I G B m l t , @ X *X*X*X*X*X",
"*X*X*X*X*X*X*X*X*X*X*X*X*X*X*X*XE W I N l y 9 , ; *X*X*X*X*X*X*X",
"*X*X*X*X*X*X*X*X*X*X*X*X*X*X*X*XE W G c q - $ @ *X*X*X*X*X*X*X*X",
"*X*X*X*X*X*X*X*X*X*X*X*X*X*X*X*XH G V f 9 * $ & *X*X*X*X*X*X*X*X",
"*X*X*X*X*X*X*X*X*X*X*X*X*X*X*XC c c f u t 9 4 4 *X*X*X*X*X*X*X*X",
"*X*X*X*X*X*X*X*X*X*X*X*X*XQ H c i q 9 t u f x c *X*X*X*X*X*X*X*X",
"*X*X*X*X*X*X*X*X*X*X*X*XQ T G c q - * 9 f V K G *X*X*X*X*X*X*X*X",
"*X*X*X*X*X*X*X*X*X*X*X*XW W G l 6 % % 6 l G W E *X*X*X*X*X*X*X*X",
"*X*X*X*X*X*X*X*X*X*X*XW T W G l 6 % % 6 z L ! ..*X*X*X*X*X*X*X*X",
"*X*X*X*X*X*X*X*X*XQ W T W W G l 6 % % 7 z I o.X.*X*X*X*X*X*X*X*X",
"*X*X*X*X*X*X*X*XQ T W W W W G l 6 % % 0 z I o.X.*X*X*X*X*X*X*X*X",
"*X*X*X*X*X*X*X*XE W W W W W I N h r e f N Y X.#.*X*X*X*X*X*X*X*X",
"*X*X*X*X*X*X*X*XE W W W W W W ` ] { [ } @.O.#.*X*X*X*X*X*X*X*X*X",
"*X*X*X*X*X*X*X*XE W W W W W #.7.q.n.M.x.r.*X*X*X*X*X*X*X*X*X*X*X",
"*X*X*X*X*X*X*X*XE W W W W W 1.g.J./.[.`.*X*X*X*X*X*X*X*X*X*X*X*X",
"*X*X*X*X*X*X*X*X3.4.1.#.W I @.d.P._.XXoX*X*X*X*X*X*X*X*X*X*X*X*X",
"*X*X*X*X*X*X*Xa.h.v.g.7.` N Z ,.z.U.Q.!.*X*X*X*X*X*X*X*X*X*X*X*X",
"*X*X*X*X*XQ 3.h.H.Y.J.q.] h p J 6.k.F.H.*X*X*X*X*X*X*X*X*X*X*X*X",
"*X*X*X*XQ T 4.v.Y.'./.n.{ r : f J 1.y.u.*X*X*X*X*X*X*X*X*X*X*X*X",
"*X*X*X*XQ T 4.v.Y.'./.C.5.j r k F ..>.;.*X*X*X*X*X*X*X*X*X*X*X*X",
"*X*X*X*X*XQ 3.h.H.Y.I.V.e.5.{ | *.=.:.=.$.*X*X*X*X*X*X*X*X*X*X*X",
"*X*X*X*X*X*X*Xa.h.v.b.N.V.C.m.f.0.2.:.-.o.! Q *X*X*X*X*X*X*X*X*X",
"*X*X*X*X*X*X*X*X3.4.i.b.I././.P.c.9.-.&.o...T Q *X*X*X*X*X*X*X*X",
"*X*X*X*X*X*X*X*XW ..3.b.R.oXOX^.G.u.>.:.1.1.3.1.*X*X*X*X*X*X*X*X",
"*X*X*X*X*X*X*X^ o.Q 8.b.W.oX+X).L.p.4.i.j.c.z.0.' *X*X*X*X*X*X*X",
"*X*X*X*X*XQ W o.X.o.9.B.W.oX#X.X~.*X*XS.K.T.I.l.{ 9 X *X*X*X*X*X",
"*X*X*X*XQ T ..Q o.o.t.D.~.oX$X@X*X*X*X*X|. X(.m.{ 2 o X *X*X*X*X",
"*X*X*X*XQ T Q X.$.&.y.F.Q.XX%X&X*X*X*X*X&X%X{.Z.{ 2 o X *X*X*X*X",
"*X*X*X*X*XQ X.o.o.%.u.H.!.oX&X*X*X*X*X*X*X&X}.A.[ 1 X *X*X*X*X*X",
"*X*X*X*X*X*X*X*X*X*X*X*X*X*X*X*X*X*X*X*X*X*X*X*X*X*X*X*X*X*X*X*X",
"*X*X*X*X*X*X*X*X*X*X*X*X*X*X*X*X*X*X*X*X*X*X*X*X*X*X*X*X*X*X*X*X",
"*X*X*X*X*X*X*X*X*X*X*X*X*X*X*X*X*X*X*X*X*X*X*X*X*X*X*X*X*X*X*X*X",
"*X*X*X*X*X*X*X*X*X*X*X*X*X*X*X*X*X*X*X*X*X*X*X*X*X*X*X*X*X*X*X*X"
};
