/* XPM */
static char *result[] = {
/* columns rows colors chars-per-pixel */
"32 64 226 2 ",
"   c #BB3200",
".  c #BD3300",
"X  c #BC3201",
"o  c #BC3301",
"O  c #BC3302",
"+  c #BD3401",
"@  c #BD3402",
"#  c #BD3403",
"$  c #BE3402",
"%  c #BE3502",
"&  c #BE3503",
"*  c #BF3503",
"=  c #BE3603",
"-  c #BF3603",
";  c #BE3504",
":  c #BF3504",
">  c #BF3604",
",  c #BF3605",
"<  c #BF3705",
"1  c #BE3706",
"2  c #C03503",
"3  c #C03604",
"4  c #C03704",
"5  c #C13704",
"6  c #C03605",
"7  c #C13705",
"8  c #C03706",
"9  c #C13706",
"0  c #C23706",
"q  c #C13905",
"w  c #C23805",
"e  c #C03806",
"r  c #C03906",
"t  c #C03807",
"y  c #C13807",
"u  c #C13907",
"i  c #C23806",
"p  c #C33806",
"a  c #C23906",
"s  c #C33906",
"d  c #C23807",
"f  c #C23907",
"g  c #C33907",
"h  c #C23A07",
"j  c #C33A07",
"k  c #C43907",
"l  c #C43A06",
"z  c #C13908",
"x  c #C23A08",
"c  c #C33A08",
"v  c #C23A09",
"b  c #C43908",
"n  c #C43A08",
"m  c #C53A08",
"M  c #C43B08",
"N  c #C53A09",
"B  c #C43B09",
"V  c #C53B09",
"C  c #C53B0A",
"Z  c #C53C09",
"A  c #C63C09",
"S  c #C53C0A",
"D  c #C53D0A",
"F  c #C53C0B",
"G  c #C43D0B",
"H  c #C53D0B",
"J  c #C63C0A",
"K  c #C73C0A",
"L  c #C63D0A",
"P  c #C73D0A",
"I  c #C73C0B",
"U  c #C73D0B",
"Y  c #C73E0B",
"T  c #C43D0C",
"R  c #C53E0D",
"E  c #C63E0C",
"W  c #C73F0C",
"Q  c #C63E0D",
"!  c #C73E0D",
"~  c #C63F0E",
"^  c #C83C0A",
"/  c #C83D0B",
"(  c #C83E0B",
")  c #CA3F0B",
"_  c #C83E0C",
"`  c #C93E0C",
"'  c #C83F0C",
"]  c #C93F0C",
"[  c #C83E0D",
"{  c #C83F0D",
"}  c #C93F0D",
"|  c #CA3F0C",
" . c #CA3F0D",
".. c #C93F0E",
"X. c #C9400D",
"o. c #CA400D",
"O. c #CB400D",
"+. c #CA410D",
"@. c #C8400F",
"#. c #C8410F",
"$. c #CA400E",
"%. c #CB400E",
"&. c #CB410E",
"*. c #CB410F",
"=. c #CB420F",
"-. c #CC410E",
";. c #CC410F",
":. c #CC420E",
">. c #CC420F",
",. c #CD420F",
"<. c #CC430F",
"1. c #CE420F",
"2. c #CE430F",
"3. c #C74010",
"4. c #C74110",
"5. c #C84210",
"6. c #C84211",
"7. c #C94211",
"8. c #C94311",
"9. c #CA4210",
"0. c #CB4210",
"q. c #CA4311",
"w. c #CB4311",
"e. c #C84212",
"r. c #C94312",
"t. c #CA4312",
"y. c #CB4312",
"u. c #CC4210",
"i. c #CD4210",
"p. c #CC4310",
"a. c #CD4310",
"s. c #CD4211",
"d. c #CC4311",
"f. c #CD4311",
"g. c #CE4210",
"h. c #CE4310",
"j. c #CF4310",
"k. c #CE4311",
"l. c #CD4312",
"z. c #CA4413",
"x. c #CC4411",
"c. c #CD4411",
"v. c #CF4410",
"b. c #CE4411",
"n. c #CF4411",
"m. c #CD4412",
"M. c #CE4512",
"N. c #CF4512",
"B. c #CE4513",
"V. c #CF4513",
"C. c #CF4613",
"Z. c #CC4515",
"A. c #CF4614",
"S. c #CF4714",
"D. c #CE4715",
"F. c #CF4715",
"G. c #CC4716",
"H. c #CD4716",
"J. c #CF4716",
"K. c #CF4816",
"L. c #CD4818",
"P. c #CF4A19",
"I. c #CF4B1B",
"U. c #D04613",
"Y. c #D04614",
"T. c #D04714",
"R. c #D04715",
"E. c #D14816",
"W. c #D04917",
"Q. c #D14917",
"!. c #D04918",
"~. c #D04A18",
"^. c #D14A18",
"/. c #D04A19",
"(. c #D14A19",
"). c #D14B19",
"_. c #D34B19",
"`. c #D04B1B",
"'. c #D24B1A",
"]. c #D04C1B",
"[. c #D24C1A",
"{. c #D34C1B",
"}. c #D34D1B",
"|. c #D04C1C",
" X c #D14C1C",
".X c #D14D1C",
"XX c #D04D1D",
"oX c #D14D1D",
"OX c #D34D1C",
"+X c #D14D1E",
"@X c #D24F1E",
"#X c #D44D1C",
"$X c #D44E1C",
"%X c #D44F1F",
"&X c #D4501F",
"*X c #D45020",
"=X c #D55020",
"-X c #D55120",
";X c #D65121",
":X c #D55221",
">X c #D65221",
",X c #D75221",
"<X c #D55322",
"1X c #D75323",
"2X c #D75423",
"3X c #D65424",
"4X c #D65425",
"5X c #D75627",
"6X c #D85424",
"7X c #D85526",
"8X c #D85626",
"9X c #D85627",
"0X c #D95828",
"qX c #D95829",
"wX c #DA5828",
"eX c #DA5929",
"rX c #DA582A",
"tX c #DB592A",
"yX c #DB5A2A",
"uX c #DC5A2B",
"iX c #DC5B2B",
"pX c #DC5B2C",
"aX c #DE5E2E",
"sX c #DE5E2F",
"dX c #DE5E30",
"fX c None",
/* pixels */
"fXfXfXfXfXfXfXfXfXfXfXfXfXfXfXfXfXfXfXfXfXfXfXfXfXfXfXfXfXfXfXfX",
"fXfXfXfXfXfXfXfXfXfXfXfXfXfXfXfXfXfXfXfXfXfXfXfXfXfXfXfXfXfXfXfX",
"fXfXfXfXfXfXfXfXfXfXfXfXfXfXfXfXfXfXfXfXfXfXfXfXfXfXfXfXfXfXfXfX",
"fXfXfXfXfXfXfXfXfXfXfXfXfXfXfXfXfXfXfXfXfXfXfXfXfXfXfXfXfXfXfXfX",
"h.h.f.fXfXfXfXfXfXfXfXfXfXfXfXfXfXfXfXfXfX. . fXfXfXfXfXfXfXfXfX",
"h.h.i.f.fXfXfXfXfXfXfXfXfXfXfXfXfXfXfXfX. o o . fXfXfXfXfXfXfXfX",
"h.h.i.;.fXfXfXfXfXfXfXfXfXfXfXfXfXfXfXfX@ o o . fXfXfXfXfXfXfXfX",
"h.h.;.) fXfXfXfXfXfXfXfXfXfXfXfXfXfXfXfX5 @ . fXfXfXfXfXfXfXfXfX",
"fXfXfXfX9 @ . fXfXfXfXfXfXfXfXfXfX,.%.( fXfXfXfXfXfXfXfXfXfXfXfX",
"fXfXfXfX@ o o . fXfXfXfXfXfXfXfX,.-.-.%.fXfXfXfXfXfXfXfXfXfXfXfX",
"fXfXfXfX@ o o . fXfXfXfXfXfXfXfX>.>.>.:.fXfXfXfXfXfXfXfXfXfXfXfX",
"fXfXfXfX9 @ . fXfXfXfXfXfXfXfX>.-.>.>.:.fXfXfXfXfXfXfXfXfXfXfXfX",
"h.h.;.) fXfXfXfXfXfXfXfXfX,.>.-.>.>.>.:.fXfXfXfXfXfXfXfXfXfXfXfX",
"h.h.i.;.fXfXfXfXfXfXfXfX,.-.>.>.>.>.>.:.fXfXfXfXfXfXfXfXfXfXfXfX",
"h.h.i.f.fXfXfXfXfXfXfXfX>.<.>.>.,.>.>.=.fXfXfXfXfXfXfXfXfXfXfXfX",
"h.h.f.fXfXfXfXfXfXfXfXfX>.>.>.p.,.a.>.X.C fXfXfXfXfXfXfXfXfXfXfX",
"fXfXfXfXfXfXfXfXfXf.1.2.fXfXfXh.a.a.>.` n * $ s ^ *.f.fXfXfXfXfX",
"fXfXfXfXfXfXfXfXf.i.h.1.fXfXfXfXh.k.=.U g @ $ p K -.i.f.fXfXfXfX",
"fXfXfXfXfXfXfXfXf.i.i.f.fXfXfXfXn.n.*.U k : * s K -.i.f.fXfXfXfX",
"fXfXfXfXfXfXfXfXfXf.f.fXfXfXfXfXfXn.>._ V g s M ( -.f.fXfXfXfXfX",
"fXfXfXfXfXfXfXfXfXfXfXfXfXfXfXfXfXfXfX .` I K ( ' fXfXfXfXfXfXfX",
"fXfXfXfXfXfXfXfXfXfXfXfXfXfXfXfXfXfXfXfX;.;.-.-.fXfXfXfXfXfXfXfX",
"fXfXfXfXfXfXfXfXfXfXfXfXfXfXfXfXfXfXfXfXh.h.h.h.fXfXfXfXfXfXfXfX",
"fXfXfXfXfXfXfXfXfXfXfXfXfXfXfXfXfXfXfXfXh.h.h.h.fXfXfXfXfXfXfXfX",
"fXfXfXfXfXf.f.fXfXfXfXfXfXdXdXfXfXfXfXfXh.h.h.h.fXfXfXfXfXfXfXfX",
"fXfXfXfXf.i.i.f.fXfXfXfXdXsXsXdXfXfXfXfXh.h.h.h.fXfXfXfXfXfXfXfX",
"fXfXfXfXV.Y.Y.V.fXfXfXfXrXqX0X5XfXfXfXfX,.i.h.h.fXfXfXfXfXfXfXfX",
"fXfXfXfX}.#X#X}.fXfXfXfXXX+X|.L.e.fXfXS  .>.h.h.fXfXfXfXfXfXfXfX",
"fXfXfXfX1X6X6X1XfXfXfXfXe.8.4.R v & 2 n _ >.h.h.fXfXfXfXfXfXfXfX",
"fXfXfXfXiXuXuXiXfXfXfXfX1 8 , ; @ X $ g / -.h.h.fXfXfXfXfXfXfXfX",
"fXfXfXfXpXaXsXdXfXfXfXfX@ @ @ @ @ @ - a J } *.*.fXfXfXfXfXfXfXfX",
"fXfXfXfX<XpXdXfXfXfXfXfXw 0 0 0 0 0 p k N K U _  .fXfXfXfXfXfXfX",
"O O , Q fXfXfXfXfXfXfXfXC A A A A A V m n g j A _ *.f.fXfXfXfXfX",
"o o o , fXfXfXfXfXfXfXfXo.X.o.o.o.o._ Z f > 3 j U *.i.f.fXfXfXfX",
"o o o @ fXfXfXfXfXfXfXfXi.,.p.f.m.M.d.W c & & i J &.i.f.fXfXfXfX",
"O O @ 9 fXfXfXfXfXfXfXfXa.i.c.A.W.'.!.q.G > @ 7 V ..f.fXfXfXfXfX",
"fXfXfXfX) ;.f.fXfXfXfXfXa.h.B.Q.OX;X%XH.~ < @ > h fXfXfXfXfXfXfX",
"fXfXfXfX;.i.i.f.fXfXfXfXj.k.S.{.>XwX8X].6.e + + fXfXfXfXfXfXfXfX",
"fXfXfXfXi.a.f.M.fXfXfXfXp.0.m.(.&X7X3XI.6.z % # fXfXfXfXfXfXfXfX",
"fXfXfXfXv.j.N.E.#XfXfXP.d.] { y.H.`.I.Z.@.B f q 6 fXfXfXfXfXfXfX",
"fXfXfXfXa.b.U._.;XtX9X Xt.C b F ! 5.7.#.[ / J c q # . fXfXfXfXfX",
"fXfXfXfXl.k.S.}.2XuX0X.Xr.y & = > < u B Y o.| J f % o . fXfXfXfX",
"fXfXfXfX:.>.B.{.1XuXqXoXr.e         @ i L &.&.K g & + + fXfXfXfX",
"fXfXfXfX/ Y 9.~.:XyXqXoXr.e         @ i L &.&.K g & @ > h fXfXfX",
"fXfXfXfXl f E H.*XtXqXoXr.e         @ i L &.&.K g & @ 7 V ..h.h.",
"fXfXfXfX* & x z.@XeXqXoXr.e         @ i L &.&.K g & & i J &.h.h.",
"fXfXfXfX* % x r..X8X8X Xq.d $ $ $ $ 3 j Y &.&./ n 3 3 j U *.h.h.",
"fXfXfXfXi i S q./.-X-X/.w.J p p p p b K ] >.>.` K n j A _ *.h.h.",
"fXfXfXfXP L ' w.F.[.[.J.d.} U U U U (  .&.>.>.&.` / U _  .fXfXfX",
"fXfXfXfXo.$.&.p.M.A.S.M.c.u.=.=.=.=.>.>.a.a.a.>.>.&.*.*.fXfXfXfX",
"fXfXfXfX,.-.u.,.a.a.b.N.C.T.S.B.c.u.>.,.a.a.h.h.h.h.i.f.fXfXfXfX",
"fXfXfXfXfX,.>.a.i.a.M.R.^.{.[.K.x.X._  .%.,.a.h.g.s.f.fXfXfXfXfX",
"fXfXfXfXfXfXfX1.a.,.M.Q.$X,X-X/.y.H n L ] &.,.i.,.fXfXfXfXfXfXfX",
"fXfXfXfXfXfXfXfX>.u.B.'.>XwX8X.Xr.x 4 c U $.>.>.fXfXfXfXfXfXfXfX",
"fXfXfXfXfXfXfXfX>.u.M.).=X8X4X].6.t & h L +.u.>.fXfXfXfXfXfXfXfX",
"fXfXfXfXfXfXfX1.a.,.c.D.~. X].G.3.r - M ' ;.,.a.1.fXfXfXfXfXfXfX",
"fXfXfXfXfX,.>.a.i.a.a.d.q.r.6.3.T fXfXP O.>.a.i.a.>.,.fXfXfXfXfX",
"fXfXfXfX,.-.u.,.a.a.u.} D x t r fXfXfXfX<.k.a.a.,.u.-.,.fXfXfXfX",
"fXfXfXfX,.-.,.i.h.k.>.Y f & o . fXfXfXfXn.n.k.h.i.,.-.,.fXfXfXfX",
"fXfXfXfXfX,.i.a.a.j.:./ l * . fXfXfXfXfXfXn.j.a.a.i.,.fXfXfXfXfX",
"fXfXfXfXfXfXfXfXfXfXfXfXfXfXfXfXfXfXfXfXfXfXfXfXfXfXfXfXfXfXfXfX",
"fXfXfXfXfXfXfXfXfXfXfXfXfXfXfXfXfXfXfXfXfXfXfXfXfXfXfXfXfXfXfXfX",
"fXfXfXfXfXfXfXfXfXfXfXfXfXfXfXfXfXfXfXfXfXfXfXfXfXfXfXfXfXfXfXfX",
"fXfXfXfXfXfXfXfXfXfXfXfXfXfXfXfXfXfXfXfXfXfXfXfXfXfXfXfXfXfXfXfX"
};
