/* XPM */
static char *result[] = {
/* columns rows colors chars-per-pixel */
"32 64 238 2 ",
"   c #BB3100",
".  c #BB3200",
"X  c #BC3100",
"o  c #BC3200",
"O  c #BD3300",
"+  c #BC3301",
"@  c #BC3302",
"#  c #BD3402",
"$  c #BD3403",
"%  c #BE3402",
"&  c #BE3502",
"*  c #BE3503",
"=  c #BF3503",
"-  c #BF3603",
";  c #BF3604",
":  c #BF3705",
">  c #BF3606",
",  c #C03503",
"<  c #C03604",
"1  c #C03605",
"2  c #C23706",
"3  c #C13805",
"4  c #C13905",
"5  c #C23805",
"6  c #C03806",
"7  c #C03807",
"8  c #C13807",
"9  c #C13907",
"0  c #C23806",
"q  c #C33806",
"w  c #C23906",
"e  c #C33906",
"r  c #C23907",
"t  c #C33907",
"y  c #C33A07",
"u  c #C43907",
"i  c #C43A06",
"p  c #C13908",
"a  c #C23A08",
"s  c #C33A08",
"d  c #C43A08",
"f  c #C53A08",
"g  c #C43B08",
"h  c #C53B08",
"j  c #C53A09",
"k  c #C43B09",
"l  c #C53B09",
"z  c #C63B09",
"x  c #C53B0A",
"c  c #C53C09",
"v  c #C63C09",
"b  c #C53C0A",
"n  c #C43D0B",
"m  c #C53D0B",
"M  c #C63C0A",
"N  c #C73C0A",
"B  c #C63D0A",
"V  c #C73D0A",
"C  c #C63D0B",
"Z  c #C73D0B",
"A  c #C73E0B",
"S  c #C33C0C",
"D  c #C73E0C",
"F  c #C63E0D",
"G  c #C73F0D",
"H  c #C53F0E",
"J  c #C83C0A",
"K  c #C83D0B",
"L  c #C83E0B",
"P  c #C83E0C",
"I  c #C93E0C",
"U  c #C83F0C",
"Y  c #C93F0C",
"T  c #C93F0D",
"R  c #CA3F0C",
"E  c #CA3F0D",
"W  c #C9400D",
"Q  c #CA400D",
"!  c #CB400D",
"~  c #CB420D",
"^  c #C9410E",
"/  c #C8410F",
"(  c #CA400E",
")  c #CA410E",
"_  c #CB410E",
"`  c #CB410F",
"'  c #CB420F",
"]  c #CC410E",
"[  c #CC410F",
"{  c #CC420E",
"}  c #CC420F",
"|  c #CD420F",
" . c #CC430F",
".. c #CD430F",
"X. c #CE420F",
"o. c #C84210",
"O. c #C94210",
"+. c #C84211",
"@. c #C94211",
"#. c #C94311",
"$. c #CB4210",
"%. c #CA4310",
"&. c #CA4211",
"*. c #CB4211",
"=. c #CA4311",
"-. c #C84312",
";. c #C94312",
":. c #CA4312",
">. c #CC4210",
",. c #CD4210",
"<. c #CD4310",
"1. c #CD4211",
"2. c #CC4311",
"3. c #CD4311",
"4. c #CE4310",
"5. c #CF4310",
"6. c #CE4311",
"7. c #CF4312",
"8. c #CA4413",
"9. c #CD4410",
"0. c #CC4411",
"q. c #CD4411",
"w. c #CE4510",
"e. c #CE4411",
"r. c #CF4411",
"t. c #CE4512",
"y. c #CF4512",
"u. c #CE4513",
"i. c #CF4513",
"p. c #CE4613",
"a. c #CF4613",
"s. c #CA4514",
"d. c #CB4514",
"f. c #CA4615",
"g. c #CC4615",
"h. c #CC4715",
"j. c #CE4614",
"k. c #CF4614",
"l. c #CF4714",
"z. c #CD4716",
"x. c #CF4816",
"c. c #CF4918",
"v. c #CE4919",
"b. c #CE4A19",
"n. c #CF4B1B",
"m. c #D04614",
"M. c #D04714",
"N. c #D04715",
"B. c #D04815",
"V. c #D14815",
"C. c #D04816",
"Z. c #D14817",
"A. c #D14917",
"S. c #D24A17",
"D. c #D04918",
"F. c #D14919",
"G. c #D14A18",
"H. c #D14A19",
"J. c #D14B19",
"K. c #D34A19",
"L. c #D04B1A",
"P. c #D14B1A",
"I. c #D04B1B",
"U. c #D24B1A",
"Y. c #D34C1A",
"T. c #D34C1B",
"R. c #D24D1B",
"E. c #D34D1B",
"W. c #D44D1B",
"Q. c #D14B1C",
"!. c #D14C1C",
"~. c #D14D1C",
"^. c #D34D1C",
"/. c #D34D1D",
"(. c #D14E1D",
"). c #D24E1D",
"_. c #D34E1D",
"`. c #D14E1E",
"'. c #D24E1E",
"]. c #D24F1E",
"[. c #D34F1F",
"{. c #D44D1C",
"}. c #D44E1C",
"|. c #D44E1D",
" X c #D44F1D",
".X c #D54F1E",
"XX c #D5501E",
"oX c #D4501F",
"OX c #D5501F",
"+X c #D35020",
"@X c #D55020",
"#X c #D55121",
"$X c #D65120",
"%X c #D65121",
"&X c #D65221",
"*X c #D75221",
"=X c #D65222",
"-X c #D65322",
";X c #D75322",
":X c #D75323",
">X c #D65424",
",X c #D65525",
"<X c #D75526",
"1X c #D75627",
"2X c #D85423",
"3X c #D85523",
"4X c #D95523",
"5X c #D85424",
"6X c #D85425",
"7X c #D95525",
"8X c #D85626",
"9X c #D95726",
"0X c #D85627",
"qX c #D95627",
"wX c #DA5727",
"eX c #DB5727",
"rX c #DA5728",
"tX c #D95828",
"yX c #DA5828",
"uX c #DA5829",
"iX c #DA5929",
"pX c #DA582A",
"aX c #DA592A",
"sX c #DB5A2A",
"dX c #DB5A2B",
"fX c #DC5A2B",
"gX c #DC5B2B",
"hX c #DD5B2B",
"jX c #DB5A2C",
"kX c #DC5B2C",
"lX c #DD5B2C",
"zX c #DD5C2D",
"xX c #DD5C2E",
"cX c #DD5D2E",
"vX c #DE5E2E",
"bX c #DE5E2F",
"nX c #DE5E30",
"mX c None",
/* pixels */
"mXmXmXmXmXmXmXmXmXmXmXmXmXmXmXmXmXmXmXmXmXmXmXmXmXmXmXmXmXmXmXmX",
"mXmXmXmXmXmXmXmXmXmXmXmXmXmXmXmXmXmXmXmXmXmXmXmXmXmXmXmXmXmXmXmX",
"mXmXmXmXmXmXmXmXmXmXmXmXmXmXmXmXmXmXmXmXmXmXmXmXmXmXmXmXmXmXmXmX",
"mXmXmXmXmXmXmXmXmXmXmXmXmXmXmXmXmXmXmXmXmXmXmXmXmXmXmXmXmXmXmXmX",
"mXmXmXmXmXmXmXmXmXmXmXmXmXmXmXmXmXmXmXmXmXmXmXmXmXmXmXmXmXmXmXmX",
"mXmXmXmXmXmXmXmXmXmXmXmXmXmXmXmXmXmXmXmXmXmXmXmXmXmXmXmXmXmXmXmX",
"mXmXmXmXmXmXmXmXmXmXmXmXmXmXmXmXmXmXmXmXmXmXmXmXmXmXmXmXmXmXmXmX",
"mXmXmXmXmXmXmXmXmXmXmXmXmXmXmXmXmXmXmXmXmXmXmXmXmXmXmXmXmXmXmXmX",
"mXmXmXmXmXmXmXmXmXmXmXmXmXmXmXmXmX3.4.4.4.4.3.mXmXmXmXmXmXmXmXmX",
"mXmXmXmXmXmXmXmXmXmXmXmXmXmXmXmX3.,.4.4.4.4.,.3.mXmXmXmXmXmXmXmX",
"mXmXmXmXmXmXmXmXmXmXmXmXmXmXmXmX] ] _ _ _ _ ] ] mXmXmXmXmXmXmXmX",
"mXmXmXmXmXmXmXmXmXmXmXmXmXmXmXU L N B B B B N L U mXmXmXmXmXmXmX",
"mXmXmXmXmXmXmXmXmXmXmXmXmX3.] L g e 0 0 0 0 e g L ] 3.mXmXmXmXmX",
"mXmXmXmXmXmXmXmXmXmXmXmX3.,.] N e = # # # # = e N ] ,.3.mXmXmXmX",
"mXmXmXmXmXmXmXmXmXmXmXmX] ] Y l 3 #   . X o % q N ] ,.3.mXmXmXmX",
"mXmXmXmXmXmXmXmXmXmXmXU L N l w ; + .   X . % e J ` 3.mXmXmXmXmX",
"mXmXmXmXmXmXmXmXmX3.] L g e 3 ; % + X X . mXmXmXmXmXmXmXmXmXmXmX",
"mXmXmXmXmXmXmXmX3.,.] N e = # + + . o . mXmXmXmXmXmXmXmXmXmXmXmX",
"mXmXmXmXmXmXmXmX4.4._ Z y ; & * ; : 6 > mXmXmXmXmXmXmXmXmXmXmXmX",
"mXmXmXmXmXmXmXmX4.4.} Y z t t x F o.o.H S mXmXmXmXmXmXmXmXmXmXmX",
"mXmXmXmXmXmXmXmX4.4.} _ I N D &.z.I.I.f.H > . mXmXmXmXmXmXmXmXmX",
"mXmXmXmXmXmXmXmX4.4.<.} _ ! 2.c.[.<X,XI.o.6 X . mXmXmXmXmXmXmXmX",
"mXmXmXmXmXmXmXmX] ] ] ' ] ` a.Y.=XrX8X!.#.8 # # mXmXmXmXmXmXmXmX",
"mXmXmXmXmXmXmXU L N K P T ~ p.J. X=XoXD.&.l 2 5 mXmXmXmXmXmXmXmX",
"mXmXmXmXmX3.] L g e t d N mXmXZ.J.Y.H.j.$.P v x mXmXmXmXmX3.4.4.",
"mXmXmXmX3.,.] N e = % , mXmXmXmXp.a.t.3.' ) W Q mXmXmXmX3.,.4.4.",
"mXmXmXmX3.,.[ U x 9 6 6 mXmXmXmX}  .` _ _ Q Q ! mXmXmXmX` ` _ _ ",
"mXmXmXmXmX3.1.*.:.;.;.@.O.mXmXmX} } ~ U L v M L U mXmXE P Z N N ",
"mXmXmXmXmXmXmXF.Q.~.~.L.x.t.} } mXmXmXx d t e h L ] ` P v y t t ",
"mXmXmXmXmXmXmXmX0XtX1X#XP.p. .} mXmXmXmX= # = e N ] ` Z y < * * ",
"mXmXmXmXmXmXmXmXnXbXgX5X}.C.p.i.mXmXmXmX# # - w M T R M r & + + ",
"mXmXmXmXmXmXmXmXmXnXhX7X&X}.R.W.mXmXmXmX5 2 q u j N M s 4 $ @ @ ",
"mXmXmXmXmXmXmXmXmXmXmXeX7X5X:X:XmXmXmXmXx v l f d t r 4 1 mXmXmX",
"mXmXmXmXmXmXmXmXmXmXmXmXhXgXfXgXmXmXmXmXQ W P c r ; & $ mXmXmXmX",
"mXmXmXmXmXmXmXmXmXmXmXmXnXbXvXlXmXmXmXmX! Q Y C k p 7 6 mXmXmXmX",
"mXmXmXmXmXmXmXmXmXmXmXmXmXnXlX9XmXmXmXY V V C G / +.;.-.mXmXmXmX",
"mXmXmXmXmXmXmXmXmXmXmXmXmXmXmXmXS.e.! V h y k / g.n.`.].mXmXmXmX",
"mXmXmXmXmXmXmXmXmXmXmXmXmXmXmXmXe...Q V y < p +.n.>XiXpXmXmXmXmX",
"mXmXmXmXmXmXmXmXmXmXmXmXmXmXmXmX{ } _ P b a n s.(.0XfXgXmXmXmXmX",
"mXmXmXmXmXmXmXmXmXmXmXmXmXmXmXmX{ } } $.=.;.s.v./.%X5X:XmXmXmXmX",
"mXmXmXmXmXmXmXmXmXmXmXmXmXmXmXmX{ } 3.j.c.!.(./.^.}.{.E.mXmXmXmX",
"mXmXmXmXmXmXmXmXmXmXmXmXmXmXmXmX{ } t.H.OX8X0X%X}.A.m.i.mXmXmXmX",
"mXmXmXmXmXmXmXmXmXmXmXmXmXmXmXmXQ ( 0.P.-XdXjX6X}.k.,.3.mXmXmXmX",
"mXmXmXmXmXmXmXmXmXmXmXmXmXmXmXmXV B ^ c.#XsXkXwX@XZ.3.mXmXmXmXmX",
"mXmXmXmXmXmXmXmXmXmXmXmXmXmXmXmX0 0 m h.+XaXxXaX2XmXmXmXmXmXmXmX",
"mXmXmXmXmXmXmXmXmXmXmXmXmXmXmXmX= & a 8.].iXcXzXmXmXmXmXmXmXmXmX",
"mXmXmXmXmXmXmXmXmXmXmXmXmXmXmXmXr 7 n d.'.qXfXgXmXmXmXmXmXmXmXmX",
"mXmXmXmXmXmXmXmXmXmXmXmXmXmXmX%.;.;.d.b.).=X3X4XmXmXmXmXmXmXmXmX",
"mXmXmXmXmXmXmXmXmXmXmXmXmX| t.x.L.~.'.)._.}.|. XmXmXmXmXmXmXmXmX",
"mXmXmXmXmXmXmXmXmXmXmXmX| ] p.P.#X0XqX=X}.A.N.B.mXmXmXmXmXmXmXmX",
"mXmXmXmXmXmXmXmXmXmXmXmXp.a.C.^.;XyXyX*XT.l.6.5.mXmXmXmXmXmXmXmX",
"mXmXmXmXmXmXmXmXmXmXmXZ.J.Y.^..X$X:X*X}.G.i.4.<.mXmXmXmXmXmXmXmX",
"mXmXmXmXmXmXmXmXmX| p.J. X=X;X$XOX|.T.G.l.e.,.<.mXmXmXmXmXmXmXmX",
"mXmXmXmXmXmXmXmX| ] a.Y.=XrXyX:X|.G.l.i.e.<.| ,.mXmXmXmXmXmXmXmX",
"mXmXmXmXmXmXmXmX' } u.U.&XyXuX:XW.M.6.<.<.} >.} mXmXmXmXmXmXmXmX",
"mXmXmXmXmXmXmXV W } t.A.}.*X:XXXY.V.w.q.9.<.| <.X.mXmXmXmXmXmXmX",
"mXmXmXmXmXO ; g U } t.N.G.T.W.Y.K.mXmX4.q.<.<.,.<.} | mXmXmXmXmX",
"mXmXmXmXO + - s D } e.y.a.M.M.V.mXmXmXmXw.6.<.<.| >.] | mXmXmXmX",
"mXmXmXmXO + * r A } 6.6.6.6.r.r.mXmXmXmXr.r.6.4.,.| ] | mXmXmXmX",
"mXmXmXmXmXO = i K { 7.7.7.7.r.mXmXmXmXmXmXr.5.<.<.,.| mXmXmXmXmX",
"mXmXmXmXmXmXmXmXmXmXmXmXmXmXmXmXmXmXmXmXmXmXmXmXmXmXmXmXmXmXmXmX",
"mXmXmXmXmXmXmXmXmXmXmXmXmXmXmXmXmXmXmXmXmXmXmXmXmXmXmXmXmXmXmXmX",
"mXmXmXmXmXmXmXmXmXmXmXmXmXmXmXmXmXmXmXmXmXmXmXmXmXmXmXmXmXmXmXmX",
"mXmXmXmXmXmXmXmXmXmXmXmXmXmXmXmXmXmXmXmXmXmXmXmXmXmXmXmXmXmXmXmX"
};
